<svg width="279" height="531" viewBox="0 0 279 531" fill="none" xmlns="http://www.w3.org/2000/svg">
<g opacity="0.5">
<path fill-rule="evenodd" clip-rule="evenodd" d="M178.223 111.445C182.425 105.453 190.224 90.235 196.138 88.094C199.948 86.715 198.837 100.98 198.884 103.7C199.067 114.224 198.043 124.681 196.778 135.116C194.498 153.937 187.045 170.697 176.822 186.715C171.562 194.957 165.391 203.3 156.845 208.442C152.912 210.811 148.179 211.207 144.294 213.248C139.769 215.623 142.233 213.703 140.194 218.417C137.363 224.963 136.457 233.408 135.147 240.392C129.132 272.455 114.568 441.945 117.093 474.558C117.317 477.449 113.287 478.14 113.085 474.611C112.016 455.9 121.27 326.322 125.94 283.947C130.609 241.571 135.334 204.134 140.071 189.474C145.819 171.687 156.199 150.298 164.84 133.711C168.854 126.006 173.229 118.565 178.223 111.445Z" fill="#69A1AC"/>
<path fill-rule="evenodd" clip-rule="evenodd" d="M209.414 319.278C220.349 311.25 232.186 326.401 222.29 334.43C216.82 338.868 211.101 337.29 207.882 333.591C205.792 336.139 203.836 338.803 201.956 341.052C196.229 347.909 190.817 354.928 185.644 362.111C174.898 377.035 165.689 392.801 156.06 408.278C146.558 423.554 137.132 438.908 128.519 454.571C121.223 467.841 111.498 483.452 109 498C112.79 467.146 127.172 437.49 144.298 410.291C161.285 383.314 180.779 353.853 207.081 332.564C204.404 328.627 204.33 323.008 209.414 319.278Z" fill="#C1DEE2"/>
<path fill-rule="evenodd" clip-rule="evenodd" d="M1.9132 244.031C8.0324 245.227 18.0312 259.07 23.0753 264.344C29.0699 270.612 34.5084 277.292 39.6349 284.292C50.6711 299.358 60.5411 315.376 68.9339 332.08C82.616 359.311 93.578 387.265 101.533 416.918C106.403 435.069 109.556 453.883 111.424 472.565C111.777 476.089 115.471 503.253 110.148 503.985C105.361 504.644 106.84 483.359 106.609 480.463C103.998 447.798 96.177 416.015 85.299 385.226C82.929 378.519 80.728 370.304 76.9381 364.268C74.2092 359.921 76.9186 361.437 72.1228 359.792C68.0049 358.378 63.3131 358.724 59.0963 356.993C49.9356 353.237 42.6006 345.944 36.1709 338.608C23.6758 324.351 13.774 308.928 8.6126 290.66C5.7495 280.532 3.1184 270.344 1.6583 259.902C1.2806 257.203 -2.0282 243.26 1.9132 244.031Z" fill="#69A1AC"/>
<path fill-rule="evenodd" clip-rule="evenodd" d="M26.0614 13.716C49.1113 53.69 68.0528 97.601 80.283 142.076C87.694 169.023 92.876 196.675 98.025 224.126C105.997 266.632 113.538 309.134 115.683 352.395C117.841 395.906 122.108 446.092 107.861 488C114.978 445.452 108.202 400.162 107.002 357.35C106.429 336.912 104.768 316.674 102.588 296.355C100.473 276.645 97.018 257.029 93.801 237.474C92.234 227.95 90.588 218.441 88.912 208.937C88.411 206.101 88.2 197.687 86.401 195.75C84.591 193.8 75.3543 193.005 72.4544 191.574C66.6149 188.693 61.1221 184.6 56.2609 180.275C46.9418 171.984 38.8347 161.151 32.4359 150.472C17.6307 125.764 11.7116 95.61 12.0108 66.994C12.0682 61.438 21.0034 1.61 17.4149 0.786102C17.631 0.533002 17.8353 0.2718 18.028 0C20.7448 4.5488 23.4108 9.1284 26.0614 13.716Z" fill="#89C5CC"/>
<path fill-rule="evenodd" clip-rule="evenodd" d="M274.846 157.887C275.202 157.374 277.517 153.807 276.351 154.035C278.724 153.57 273.087 157.969 279 155.27C276.192 157.922 277.813 161.366 277.85 164.935C277.911 170.73 276.942 176.476 275.851 182.146C274.126 191.109 271.557 199.823 267.828 208.159C259.701 226.326 245.901 243.814 229.518 255.172C221.43 260.779 213.504 262.689 204.28 265.27C198.453 266.901 197.991 269.915 194.898 275.569C188.46 287.345 182.136 299.078 176.457 311.251C169.677 325.788 163.095 340.34 156.886 355.132C135.969 404.957 118.945 456.578 110.005 510C109.786 478.519 117.069 446.095 126.255 416.088C132.947 394.226 141.658 373.151 150.95 352.29C153.201 347.236 156.613 340.735 157.57 335.155C158.239 331.245 156.192 327.486 155.255 323.367C151.601 307.33 151.863 289.363 155.071 273.24C158.609 255.461 168.839 247.209 186.145 244.691C192.474 243.769 200.519 244.107 206.322 241.408C212.645 238.47 215.253 228.81 218.849 222.61C228.506 205.953 239.98 189.979 253.155 175.945C256.803 172.059 260.726 168.473 264.888 165.15C267.513 163.053 273.058 160.47 274.846 157.887Z" fill="#89C5CC"/>
<path fill-rule="evenodd" clip-rule="evenodd" d="M75.845 481.729C75.3997 478.71 77.7396 476 80.791 476H142.209C145.26 476 147.6 478.71 147.155 481.729L142.408 513.918C140.961 523.73 132.541 531 122.622 531H100.378C90.459 531 82.039 523.73 80.592 513.918L75.845 481.729Z" fill="#C1DEE2"/>
</g>
</svg>
