<svg width="254" height="401" viewBox="0 0 254 401" fill="none" xmlns="http://www.w3.org/2000/svg">
<g opacity="0.7">
<path fill-rule="evenodd" clip-rule="evenodd" d="M23.307 115.427C36.9754 114.719 53.8807 122.697 55.3384 137.555C56.3977 148.35 56.0703 159.115 57.7092 169.895C59.0198 178.509 61.7922 186.779 65.5737 194.626C69.2101 202.173 76.7521 208.596 78.7134 216.658C79.9639 221.795 79.2641 229.021 77.54 234.045C75.4435 240.154 76.5579 239.671 80.7359 244.798C88.9227 254.843 96.2955 265.144 101.509 277.141C109.018 294.422 113.942 314.621 111.154 333.537C110.8 335.939 110.379 344.559 107.071 345.162C103.377 345.836 105.105 340.906 105.302 339.313C106.559 329.152 107.676 320.27 106.159 309.95C100.309 270.131 71.7441 243.897 53.1438 210.102C52.1215 208.359 49.963 204.209 48.4622 201.472C46.0923 197.148 43.7105 188.925 40.5026 185.719C34.4614 179.682 40.016 191.82 41.1924 194.137C42.6812 197.068 44.3182 200.184 45.844 202.752C52.8224 214.658 60.6118 227.654 67.8184 239.928C36.648 247.029 14.6956 209.555 6.33061 184.919C-0.561653 164.621 -8.80755 117.165 23.307 115.427Z" fill="#69A1AC"/>
<path fill-rule="evenodd" clip-rule="evenodd" d="M206.51 77.7333C183.66 79.5464 168.991 94.6245 162.163 115.714C158.482 127.078 158.06 138.753 156.014 150.433C152.939 168.005 146.319 181.322 133.381 193.841C129.374 197.717 126.421 201.698 124.322 205.957C120.155 210.209 116.528 215.021 113.863 220.904C110.459 228.417 109.495 237.432 113.425 244.922C114.482 246.936 117.119 250.978 119.851 252.814C109.622 274.6 103.997 298.461 104.631 322.292C105.014 336.676 105.716 351.067 106.536 365.434C106.756 369.292 108.013 375.663 109.899 369.193C111.626 363.275 109.46 353.985 109.26 347.803C108.285 317.686 107.452 290.302 119.849 262.164C121.149 259.215 122.528 256.289 123.963 253.388C124.048 253.339 124.126 253.28 124.205 253.223C124.259 253.265 124.309 253.31 124.364 253.352C124.455 253.188 124.582 252.994 124.728 252.776C125.139 252.351 125.499 251.814 125.841 251.215C126.94 249.692 128.185 247.9 128.192 246.92C128.192 246.913 128.188 246.901 128.188 246.893C135.862 234.365 144.653 222.528 153.631 210.921C153.564 211.006 163.371 197.653 161.855 205.037C161.124 208.596 153.911 215.372 150.997 219.142C144.553 227.527 136.984 238.153 130.696 248.427C129.85 248.914 128.654 251.3 127.789 253.08C127.312 253.981 126.866 254.889 126.429 255.681C148.712 263.043 166.046 248.213 177.866 230.964C177.88 230.943 177.894 230.922 177.907 230.902C181.504 226.136 185.188 221.404 189.792 217.636C197.471 211.349 205.696 210.239 214.751 207.145C239.444 198.708 249.943 166.706 253.277 142.961C257.039 116.171 238.637 75.0921 206.51 77.7333Z" fill="#89C5CC"/>
<path fill-rule="evenodd" clip-rule="evenodd" d="M161.374 2.71325C137.921 27.1205 126.591 60.9751 117.62 92.8023C107.6 128.349 100.981 164.444 100.727 201.403C100.561 225.685 99.8999 250.118 101.318 274.371C101.82 282.984 102.679 291.614 104.044 300.134C104.157 300.835 107.212 319.861 110.134 315.427C111.796 312.906 107.002 295.691 106.641 292.823C104.604 276.673 104.13 260.404 104.229 244.138C104.392 217.355 103.603 190.71 106.318 164.026C106.722 160.041 107.042 155.857 107.989 151.959C108.994 147.815 107.713 149.624 110.986 147.983C114.167 146.39 118.097 146.617 121.397 144.616C134.484 136.68 141.179 116.293 146.391 102.917C152.351 87.6221 155.973 71.3105 158.867 55.2132C160.991 43.387 162.51 31.6319 163.369 19.6526C163.64 15.877 163.656 11.9293 164.398 8.21686C164.598 7.21566 165.601 5.44453 165.565 4.55747C165.488 2.68022 164.355 1.57689 164.262 0C163.28 0.883059 162.317 1.78814 161.374 2.71325Z" fill="#89C5CC"/>
<path fill-rule="evenodd" clip-rule="evenodd" d="M33.4972 327.912C33.4972 368.278 66.2195 401 106.585 401C146.95 401 179.673 368.278 179.673 327.912" fill="#89C5CC"/>
<path fill-rule="evenodd" clip-rule="evenodd" d="M156.673 263.921C174.762 262.587 194.962 277.18 203.687 292.367C210.722 304.61 209.536 320.689 205.192 333.697C202.283 342.406 195.933 354.823 185.344 354.944C172.096 355.095 171.458 338.721 171.201 329.15C170.861 316.424 169.253 305.338 159.225 296.664C157.988 295.594 156.688 294.591 155.389 293.589C154.236 292.699 153.084 291.81 151.973 290.873C151.796 290.723 151.617 290.574 151.439 290.423C147.892 287.443 144.169 284.313 143.715 279.4C143.059 272.282 147.076 271 153.212 272.323C153.41 272.366 153.948 272.569 154.679 272.846C157.812 274.034 164.498 276.569 163.234 273.539C162.757 272.398 161.018 271.493 158.823 270.815C153.142 270.197 146.366 269.48 144.417 269.909C123.397 274.52 115.212 303.638 113.039 322.138C112.804 324.135 112.615 326.138 112.449 328.145H108.587C108.856 323.3 109.209 318.463 110.019 313.671C113.118 295.346 122.804 268.432 144.05 265.457C144.834 265.347 147.717 265.328 151.209 265.534C152.864 264.608 154.719 264.049 156.673 263.921Z" fill="#69A1AC"/>
</g>
</svg>
