<svg width="104" height="104" viewBox="0 0 104 104" fill="none" xmlns="http://www.w3.org/2000/svg">
<g clip-path="url(#clip0_24622_299)">
<rect width="104" height="104" rx="12" fill="#E35335"/>
<path fill-rule="evenodd" clip-rule="evenodd" d="M104 0H0V104H104V0ZM70.044 35.7735C66.768 33.4995 63.0977 32.3625 59.033 32.3625C55.4537 32.3625 52.3597 33.2071 49.751 34.8964C47.1423 36.5207 45.201 38.7947 43.927 41.7183V18.3071C43.927 16.812 42.7953 15.6 41.3992 15.6H28.5278C27.1317 15.6 26 16.812 26 18.3071V85.0107C26 86.5058 27.1317 87.7178 28.5278 87.7178H41.3992C42.7953 87.7178 43.927 86.5058 43.927 85.0107V79.0442C45.201 81.9679 47.1423 84.2743 49.751 85.9636C52.3597 87.5879 55.4537 88.4 59.033 88.4C63.0977 88.4 66.768 87.2955 70.044 85.0865C73.32 82.8125 75.8983 79.5639 77.779 75.3408C79.6597 71.0527 80.6 66.05 80.6 60.3325C80.6 54.6151 79.6597 49.6448 77.779 45.4217C75.8983 41.1986 73.32 37.9825 70.044 35.7735ZM46.475 52.1462C48.2343 50.1321 50.4487 49.125 53.118 49.125C55.9087 49.125 58.1533 50.1321 59.852 52.1462C61.6113 54.0953 62.491 56.8241 62.491 60.3325C62.491 63.9059 61.6113 66.6997 59.852 68.7138C58.1533 70.6629 55.9087 71.6375 53.118 71.6375C50.4487 71.6375 48.2343 70.6304 46.475 68.6163C44.7157 66.6022 43.836 63.841 43.836 60.3325C43.836 56.8891 44.7157 54.1603 46.475 52.1462Z" fill="white"/>
</g>
<defs>
<clipPath id="clip0_24622_299">
<rect width="104" height="104" rx="12" fill="white"/>
</clipPath>
</defs>
</svg>
