<svg width="64" height="64" viewBox="0 0 64 64" fill="none" xmlns="http://www.w3.org/2000/svg">
<path d="M40.8046 18.8525H28.5898V23.4239V26.2125V28.5622V30.6102V35.2274H35.2549V28.5714H30.2172V23.4331H37.6961C38.4458 23.4331 39.1224 23.7348 39.6069 24.2285C40.1006 24.7131 40.4024 25.3988 40.4024 26.1394V37.7965V40.3657H37.8332H26.1486C25.3989 40.3657 24.7223 40.0639 24.2377 39.5702C23.744 39.0765 23.4424 38.3999 23.4424 37.6594V26.2217V26.0022V23.4331V16.64V13.7142H40.8046C43.3738 13.7142 45.6961 14.7565 47.3875 16.4479C49.0698 18.1302 50.1212 20.4617 50.1212 23.0217V42.3222V45.9611V47.5702C50.1212 48.9508 48.9966 50.0754 47.6161 50.0754H47.1864H45.8698H23.0309C20.4618 50.0754 18.1395 49.0331 16.4481 47.3417C14.7566 45.6594 13.7144 43.3279 13.7144 40.7679V23.4239H16.4024H18.8526H21.8058V28.5622H18.8526V40.7679C18.8526 41.9108 19.3189 42.9531 20.0777 43.7119C20.8366 44.4708 21.8789 44.9371 23.0218 44.9371H44.9646V23.0217C44.9646 21.8788 44.4984 20.8365 43.7395 20.0777C42.9898 19.328 41.9566 18.8525 40.8046 18.8525Z" fill="#1FA304"/>
</svg>
