<svg width="64" height="64" viewBox="0 0 64 64" fill="none" xmlns="http://www.w3.org/2000/svg">
<path d="M44.1045 18.2858H33.9502C24.8148 18.2858 24.1121 22.2389 24.1121 27.5334V37.381C24.1121 42.8872 24.8148 46.6286 33.9853 46.6286H44.1045C53.2399 46.6286 53.9426 42.6754 53.9426 37.4163V27.5334C53.9426 22.2742 53.2399 18.2858 44.1045 18.2858ZM10.9712 25.3803C10.9712 20.7212 12.7983 18.2858 15.8902 18.2858C18.9822 18.2858 20.8093 20.7212 20.8093 25.3803V39.5341C20.8093 44.1932 18.9822 46.6286 15.8902 46.6286C12.7983 46.6286 10.9712 44.1932 10.9712 39.5341V25.3803Z" fill="#1A1A19"/>
</svg>
