<svg width="64" height="64" viewBox="0 0 64 64" fill="none" xmlns="http://www.w3.org/2000/svg">
<path d="M46.0496 32.3365C46.0517 31.3403 45.9672 30.3458 45.7973 29.3642H31.9998V34.9971H39.901C39.7392 35.8973 39.3964 36.7554 38.8936 37.5194C38.3907 38.2835 37.7381 38.9376 36.9753 39.4423V43.0995H41.6912C43.1307 41.7105 44.2624 40.0348 45.0132 38.1808C45.764 36.3267 46.1171 34.3357 46.0496 32.3365Z" fill="#4285F4"/>
<path d="M31.9998 46.6286C35.5637 46.7289 39.0317 45.4661 41.6967 43.0976L36.9826 39.4405C35.8477 40.168 34.562 40.6272 33.223 40.7832C31.884 40.9392 30.5271 40.7879 29.2554 40.3409C27.9836 39.8938 26.8305 39.1627 25.8837 38.2032C24.9369 37.2436 24.2213 36.0808 23.7913 34.8032H18.9255V38.5719C20.1438 40.9947 22.0116 43.0312 24.3204 44.4539C26.6291 45.8766 29.2879 46.6295 31.9998 46.6286Z" fill="#34A853"/>
<path d="M23.7858 34.8032C23.1732 32.9868 23.1732 31.0196 23.7858 29.2032V25.4346H18.9255C17.9024 27.4731 17.3696 29.7224 17.3696 32.0032C17.3696 34.2841 17.9024 36.5334 18.9255 38.5719L23.7858 34.8032Z" fill="#FBBC04"/>
<path d="M31.9998 23.1616C34.0859 23.1282 36.1015 23.9163 37.6117 25.3559L41.7881 21.1795C39.1398 18.6932 35.632 17.3285 31.9998 17.3715C29.2872 17.3711 26.628 18.125 24.3192 19.5489C22.0104 20.9728 20.1429 23.0105 18.9255 25.4346L23.784 29.2032C24.35 27.4638 25.447 25.9455 26.9207 24.8618C28.3944 23.7781 30.1707 23.1835 31.9998 23.1616Z" fill="#EA4335"/>
</svg>
