<svg width="64" height="64" viewBox="0 0 64 64" fill="none" xmlns="http://www.w3.org/2000/svg">
<path d="M19.7589 18.6333L35.9478 17.4376C37.9364 17.267 38.4472 17.382 39.6977 18.291L44.8654 21.9315C45.7176 22.5576 46.0014 22.7281 46.0014 23.4098V43.3758C46.0014 44.6271 45.5471 45.3673 43.9564 45.4802L25.1569 46.6189C23.9632 46.6754 23.3947 46.5048 22.7695 45.7082L18.964 40.7596C18.2815 39.8488 17.9985 39.1671 17.9985 38.3702V20.6228C17.9985 19.5997 18.4529 18.7465 19.7589 18.6333Z" fill="white"/>
<path fill-rule="evenodd" clip-rule="evenodd" d="M35.9478 17.4376L19.7589 18.6333C18.4529 18.7465 17.9985 19.5997 17.9985 20.6228V38.3702C17.9985 39.1671 18.2815 39.8488 18.964 40.7596L22.7695 45.7082C23.3947 46.5048 23.9632 46.6754 25.1569 46.6189L43.9564 45.4802C45.5459 45.367 46.0014 44.6268 46.0014 43.3758V23.4098C46.0014 22.7632 45.7463 22.5772 44.9944 22.0254L39.6977 18.291C38.4472 17.382 37.9364 17.267 35.9478 17.4376ZM25.582 23.0833C24.0469 23.1866 23.6987 23.21 22.8268 22.5011L20.6103 20.7381C20.385 20.5099 20.4983 20.2252 21.0659 20.1684L36.6286 19.0312C37.9355 18.9171 38.616 19.3726 39.1272 19.7705L41.7963 21.7044C41.9104 21.7621 42.1942 22.1023 41.8528 22.1023L25.7809 23.0699L25.582 23.0833ZM23.7923 43.2055V26.256C23.7923 25.5158 24.0197 25.1743 24.7002 25.117L43.1597 24.0362C43.7858 23.9798 44.0687 24.3777 44.0687 25.1167V41.9533C44.0687 42.6935 43.9546 43.3196 42.9326 43.3761L25.2681 44.4001C24.2461 44.4565 23.7923 44.1163 23.7923 43.2055ZM41.2296 27.1647C41.3428 27.6767 41.2296 28.1887 40.7176 28.2472L39.8662 28.416V40.9302C39.1269 41.3281 38.4464 41.5554 37.8776 41.5554C36.9686 41.5554 36.7415 41.2707 36.0607 40.4182L30.4931 31.6586V40.1335L32.2544 40.5323C32.2544 40.5323 32.2544 41.5563 30.8334 41.5563L26.9158 41.7836C26.8017 41.5554 26.9158 40.9869 27.3128 40.8737L28.336 40.5899V29.3844L26.9161 29.2694C26.802 28.7574 27.0858 28.0181 27.8816 27.9608L32.085 27.6779L37.8779 36.5507V28.701L36.4013 28.5313C36.2872 27.9043 36.7415 27.4488 37.3091 27.3932L41.2296 27.1647Z" fill="black"/>
</svg>
