<svg width="70" height="48" viewBox="0 0 70 48" fill="none" xmlns="http://www.w3.org/2000/svg">
<rect x="0.5" y="0.5" width="69" height="47" rx="5.5" fill="white" stroke="#BDBDBD"/>
<path d="M29.4678 47L68.9678 35.5V42C68.9678 44.7614 66.7292 47 63.9678 47H29.4678Z" fill="#FD6020"/>
<path fill-rule="evenodd" clip-rule="evenodd" d="M29.8516 19.2216C30.6122 19.2216 31.4819 19.3289 32.1338 19.7587V21.9081C31.5905 21.2634 30.7208 20.8339 29.8516 20.8339C28.1132 20.9416 26.7009 22.4458 26.8096 24.165V24.3798C26.8098 26.0989 28.2226 27.3886 29.9609 27.3886C30.83 27.3885 31.5906 26.958 32.1338 26.3134V28.4628C31.3732 28.7852 30.6124 28.9999 29.7432 28.9999C27.0268 28.9999 24.8535 26.7429 24.8535 24.0566C24.8538 21.2631 27.0268 19.0069 29.8516 19.2216ZM46.9111 25.6689L49.5186 19.2216H51.4746L47.4541 28.9999H46.4766L42.4561 19.2216H44.4121L46.9111 25.6689ZM21.1592 19.0068C22.1371 19.0068 23.1154 19.4363 23.876 20.081L22.8984 21.371C22.4639 20.9413 21.9202 20.6182 21.377 20.6181C20.725 20.5106 20.1819 21.0486 20.0732 21.6933C20.0733 22.2304 20.399 22.4452 21.4854 22.8749C23.6585 23.7346 24.2019 24.3794 24.3105 25.6689V25.9911C24.2019 27.7104 22.7893 29 21.0508 28.8925C19.7469 28.8925 18.4429 28.2473 17.791 27.0654L18.9863 25.8837C19.3123 26.6359 20.0731 27.1728 20.9424 27.1728H21.0508C21.7027 27.1728 22.3545 26.5285 22.3545 25.7763C22.3545 25.3466 22.1374 25.0244 21.8115 24.8095C21.377 24.5947 20.9423 24.3799 20.5078 24.2724C18.7694 23.7352 18.2256 22.9826 18.2256 21.6933V21.5859C18.3342 20.0816 19.6381 18.8995 21.1592 19.0068ZM9.85938 19.2216C12.4669 19.3291 14.5312 21.4779 14.4229 24.0566C14.4229 25.4535 13.7711 26.7438 12.6846 27.7109C11.7068 28.4629 10.5115 28.8924 9.31641 28.7851H6.59961V19.2216H9.85938ZM17.0303 28.7851H15.1836V19.2216H17.0303V28.7851ZM57.5596 20.8339H54.1904V22.9824H57.4502V24.5947H54.1904V27.1728H57.5596V28.7851H52.3438V19.2216H57.5596V20.8339ZM61.4707 19.2216C63.6435 19.2217 64.8389 20.189 64.8389 22.0156C64.9474 23.4124 63.9689 24.5946 62.665 24.8095L65.5996 28.7851H63.3174L60.8184 24.9169H60.6006V28.7851H58.7539V19.2216H61.4707ZM11.4893 21.5859C10.8374 21.0487 9.85941 20.7256 8.99023 20.8329H8.44629V27.1728H8.99023C9.85944 27.2802 10.8374 26.9581 11.4893 26.4208C12.1411 25.7761 12.4668 24.9161 12.4668 23.9491C12.4667 23.0898 12.1409 22.2305 11.4893 21.5859ZM60.6006 23.6269H61.1445C62.3395 23.6268 62.8828 23.0899 62.8828 22.123C62.8828 21.2634 62.3396 20.7256 61.1445 20.7255H60.6006V23.6269Z" fill="black"/>
<path fill-rule="evenodd" clip-rule="evenodd" d="M37.6749 19C34.9585 19 32.6768 21.1491 32.6768 23.9429C32.6768 26.6292 34.8499 28.8858 37.6749 28.9932C40.5 29.1007 42.6731 26.8441 42.7817 24.0503C42.6731 21.2565 40.5 19 37.6749 19V19Z" fill="#FD6020"/>
</svg>
