<svg width="64" height="64" viewBox="0 0 64 64" fill="none" xmlns="http://www.w3.org/2000/svg">
<path d="M23.9942 33.6883L28.1284 29.3286C30.4022 26.9307 32.2899 24.9658 32.3232 24.9621C32.3564 24.9583 34.2569 26.9202 36.5464 29.3218L40.7092 33.6883L35.1289 33.7366V51.2H29.3054V33.7367L23.9942 33.6883Z" fill="#2896FB"/>
<path d="M35.08 38.5806C35.0447 38.5806 30.6629 34.8096 29.5375 33.8107C29.49 33.7686 30.7286 33.734 32.29 33.734H35.129V36.1573C35.129 37.4901 35.107 38.5806 35.08 38.5806Z" fill="#1F81DB"/>
<path fill-rule="evenodd" clip-rule="evenodd" d="M16.8897 17.1208L12.7998 21.4346L18.5683 21.4829V51.2H23.6639V21.4829L29.4328 21.4346L25.313 17.1138C23.0471 14.7374 21.1451 12.7962 21.0864 12.8001C21.0276 12.804 19.1392 14.7483 16.8897 17.1208Z" fill="#FDC400"/>
<path fill-rule="evenodd" clip-rule="evenodd" d="M19.6639 22.146C20.0412 22.5092 21.0956 23.5209 22.0069 24.3944L23.6639 25.9825V21.4803L18.9778 21.4859L19.6639 22.146Z" fill="#DAA900"/>
<path d="M35.5747 21.4575C35.5948 21.3946 37.4305 19.4229 39.6542 17.0759C41.8779 14.7289 43.7444 12.8051 43.8019 12.8008C43.9193 12.7921 52.1141 21.3566 52.1141 21.488C52.1141 21.5369 50.9231 21.5718 49.2478 21.5718H46.3816V51.2H41.286V21.5718H38.4122C36.1543 21.5718 35.5461 21.5473 35.5747 21.4575Z" fill="#4ACF27"/>
<path fill-rule="evenodd" clip-rule="evenodd" d="M41.7562 21.5571C41.7801 21.6178 44.3995 24.1358 46.0858 25.7194L46.3816 25.997V21.4803H44.0537C42.7734 21.4803 41.7394 21.5149 41.7562 21.5571Z" fill="#51B346"/>
</svg>
