<svg width="70" height="48" viewBox="0 0 70 48" fill="none" xmlns="http://www.w3.org/2000/svg">
<rect x="0.5" y="0.5" width="69" height="47" rx="5.5" fill="white" stroke="#BDBDBD"/>
<path fill-rule="evenodd" clip-rule="evenodd" d="M54.9941 28.6377H55.0293L57.9482 21.3115H60L53.6934 36H51.7471L54.0918 30.8613L49.9531 21.3115H52.0049L54.9941 28.6377ZM45.123 20.9785C46.5181 20.9785 47.6208 21.3591 48.4297 22.1084C49.2384 22.8577 49.6367 23.9046 49.6367 25.2246V31.5156H47.8311V30.1006H47.749C46.9636 31.2661 45.9321 31.8486 44.6309 31.8486C43.529 31.8486 42.5911 31.5156 41.8525 30.8496C41.1259 30.2312 40.7159 29.3157 40.7393 28.3526C40.7393 27.2941 41.1375 26.4614 41.9229 25.8311C42.7082 25.2008 43.7633 24.8917 45.0762 24.8916C46.2014 24.8916 47.116 25.1055 47.8428 25.5098V25.0694C47.8427 24.4154 47.5616 23.7973 47.0693 23.3692C46.5652 22.9172 45.9202 22.667 45.252 22.667C44.1971 22.6671 43.3644 23.1197 42.7549 24.0235L41.0908 22.9649C41.9817 21.6448 43.3296 20.9786 45.123 20.9785ZM36.1787 16.6016C37.386 16.5778 38.5583 17.0413 39.4141 17.8975C41.1256 19.515 41.2311 22.239 39.625 23.9873L39.4141 24.2012C38.5348 25.0456 37.4565 25.4736 36.1787 25.4736H33.0605V31.5156H31.1729V16.6016H36.1787ZM45.3701 26.4375C44.6081 26.4375 43.9631 26.6275 43.4473 26.9961C42.9432 27.3648 42.6856 27.8288 42.6855 28.3877C42.6855 28.8872 42.9197 29.3513 43.3066 29.6367C43.7287 29.9698 44.2448 30.1486 44.7725 30.1367C45.5697 30.1367 46.3318 29.815 46.8945 29.2442C47.5159 28.6495 47.832 27.9474 47.832 27.1387C47.2458 26.6632 46.4251 26.4256 45.3701 26.4375ZM33.0605 23.6426H36.2266C36.9299 23.6663 37.6102 23.3805 38.0908 22.8692C39.0753 21.8345 39.0518 20.1699 38.0322 19.1709C37.5516 18.6952 36.9065 18.4327 36.2266 18.4326H33.0605V23.6426Z" fill="#3C4043"/>
<path d="M26.544 24.1659C26.544 23.5831 26.4971 23.0003 26.4034 22.4294H18.4434V25.7239H23.0037C22.8161 26.7825 22.2065 27.734 21.3155 28.3286V30.4695H24.0353C25.6296 28.9828 26.544 26.7825 26.544 24.1659Z" fill="#4285F4"/>
<path d="M18.4442 32.539C20.7185 32.539 22.6411 31.7778 24.0361 30.4695L21.3164 28.3287C20.5544 28.852 19.5814 29.1493 18.4442 29.1493C16.2403 29.1493 14.3763 27.6388 13.7081 25.6169H10.9062V27.8291C12.3365 30.7193 15.2555 32.539 18.4442 32.539Z" fill="#34A853"/>
<path d="M13.708 25.6169C13.3563 24.5584 13.3563 23.4048 13.708 22.3343V20.134H10.9058C9.69808 22.5484 9.69808 25.4029 10.9058 27.8172L13.708 25.6169Z" fill="#FBBC04"/>
<path d="M18.4442 18.8019C19.6517 18.7781 20.8123 19.242 21.6798 20.0864L24.0948 17.6363C22.559 16.1853 20.5427 15.3885 18.4442 15.4123C15.2555 15.4123 12.3365 17.2439 10.9062 20.134L13.7081 22.3462C14.3763 20.3124 16.2403 18.8019 18.4442 18.8019Z" fill="#EA4335"/>
</svg>
