<svg width="64" height="64" viewBox="0 0 64 64" fill="none" xmlns="http://www.w3.org/2000/svg">
<path fill-rule="evenodd" clip-rule="evenodd" d="M29.1638 25.5297C29.1638 24.1583 30.3228 23.6308 32.2425 23.6308C34.9953 23.6308 38.4724 24.4396 41.2252 25.8813V17.6176C38.2189 16.4571 35.2488 16 32.2425 16C24.8898 16 20 19.7275 20 25.9517C20 35.6572 33.7638 34.1099 33.7638 38.2945C33.7638 39.9121 32.315 40.4396 30.2866 40.4396C27.2803 40.4396 23.4409 39.244 20.3984 37.6264V45.9956C23.7669 47.4022 27.1717 48 30.2866 48C37.8205 48 43 44.378 43 38.0835C42.9638 27.6044 29.1638 29.4681 29.1638 25.5297Z" fill="#533AFD"/>
</svg>
