<svg width="70" height="48" viewBox="0 0 70 48" fill="none" xmlns="http://www.w3.org/2000/svg">
<rect x="0.5" y="0.5" width="69" height="47" rx="5.5" fill="white" stroke="#BDBDBD"/>
<path d="M38.09 38.9998C45.8851 39.0375 53 32.5842 53 24.7339C53 16.1499 45.8851 10.2157 38.09 10.2189H31.3813C23.4933 10.2157 17 16.1515 17 24.7339C17 32.5858 23.4933 39.0375 31.3813 38.9998H38.09Z" fill="#0079BE"/>
<path d="M31.4128 11.4084C24.2042 11.4109 18.3637 17.3066 18.3613 24.5833C18.3637 31.8593 24.2042 37.755 31.4128 37.7574C38.6223 37.755 44.4652 31.8593 44.466 24.5833C44.4652 17.3066 38.6231 11.4109 31.4128 11.4084ZM23.1404 24.5833C23.1389 22.9009 23.6449 21.2571 24.5925 19.8668C25.54 18.4766 26.8849 17.4045 28.4514 16.7907V32.3751C26.8847 31.7618 25.5397 30.6899 24.5921 29.2997C23.6446 27.9095 23.1386 26.2657 23.1404 24.5833ZM34.3735 32.3783V16.7899C35.9412 17.4028 37.2872 18.4748 38.2354 19.8655C39.1837 21.2563 39.6898 22.9009 39.6877 24.5841C39.6895 26.2673 39.1832 27.9118 38.235 29.3024C37.2869 30.6931 35.941 31.7651 34.3735 32.3783Z" fill="white"/>
<path d="M38.09 38.9998C45.8851 39.0375 53 32.5842 53 24.7339C53 16.1499 45.8851 10.2157 38.09 10.2189H31.3813C23.4933 10.2157 17 16.1515 17 24.7339C17 32.5858 23.4933 39.0375 31.3813 38.9998H38.09Z" fill="#0079BE"/>
<path d="M31.4128 11.4084C24.2042 11.4109 18.3637 17.3066 18.3613 24.5833C18.3637 31.8593 24.2042 37.755 31.4128 37.7574C38.6223 37.755 44.4652 31.8593 44.466 24.5833C44.4652 17.3066 38.6231 11.4109 31.4128 11.4084ZM23.1404 24.5833C23.1389 22.9009 23.6449 21.2571 24.5925 19.8668C25.54 18.4766 26.8849 17.4045 28.4514 16.7907V32.3751C26.8847 31.7618 25.5397 30.6899 24.5921 29.2997C23.6446 27.9095 23.1386 26.2657 23.1404 24.5833ZM34.3735 32.3783V16.7899C35.9412 17.4028 37.2872 18.4748 38.2354 19.8655C39.1837 21.2563 39.6898 22.9009 39.6877 24.5841C39.6895 26.2673 39.1832 27.9118 38.235 29.3024C37.2869 30.6931 35.941 31.7651 34.3735 32.3783Z" fill="white"/>
</svg>
