<svg width="64" height="64" viewBox="0 0 64 64" fill="none" xmlns="http://www.w3.org/2000/svg">
<path d="M12.7998 26.4533C12.7998 21.6741 12.7998 19.2846 13.7299 17.4592C14.548 15.8536 15.8534 14.5481 17.4591 13.73C19.2845 12.7999 21.674 12.7999 26.4532 12.7999H37.5464C42.3256 12.7999 44.7151 12.7999 46.5405 13.73C48.1462 14.5481 49.4516 15.8536 50.2697 17.4592C51.1998 19.2846 51.1998 21.6741 51.1998 26.4533V37.5465C51.1998 42.3257 51.1998 44.7153 50.2697 46.5406C49.4516 48.1463 48.1462 49.4518 46.5405 50.2698C44.7151 51.1999 42.3256 51.1999 37.5464 51.1999H26.4532C21.674 51.1999 19.2845 51.1999 17.4591 50.2698C15.8534 49.4518 14.548 48.1463 13.7299 46.5406C12.7998 44.7153 12.7998 42.3257 12.7998 37.5465V26.4533Z" fill="white"/>
<path d="M32.0024 27.1323L27.256 18.756C27.4136 18.5956 27.5949 18.4903 27.7762 18.4196C26.3767 18.8803 25.7344 20.452 25.7344 20.452L17.0635 35.7501C16.9415 36.2299 16.9076 36.6628 16.9228 37.0442H26.3868L32.0024 27.1323Z" fill="#34A853"/>
<path d="M32.0024 27.1323L37.6181 37.0442H47.0821C47.0973 36.6628 47.0634 36.2299 46.9414 35.7501L38.2705 20.452C38.2705 20.452 37.6266 18.8803 36.2286 18.4196C36.4082 18.4903 36.5912 18.5956 36.7488 18.756L32.0024 27.1323Z" fill="#FBBC05"/>
<path d="M32.0024 27.1323L36.7488 18.757C36.5912 18.5966 36.4081 18.4913 36.2286 18.4206C36.0218 18.3533 35.7999 18.3085 35.5592 18.2964H28.4456C28.2067 18.3067 27.983 18.3516 27.7762 18.4206C27.5967 18.4913 27.4136 18.5966 27.256 18.757L32.0024 27.1323Z" fill="#188038"/>
<path d="M26.3882 37.0443L21.6961 45.3259C21.6961 45.3259 21.5402 45.2499 21.3284 45.0929C21.9943 45.6054 22.6416 45.714 22.6416 45.714H41.0696C42.0862 45.714 42.2981 45.3259 42.2981 45.3259C42.3014 45.3241 42.3032 45.3223 42.3065 45.3206L37.6181 37.0442L26.3882 37.0443Z" fill="#4285F4"/>
<path d="M26.3882 37.0443H16.9248C16.9722 38.1693 17.4603 38.8267 17.4603 38.8267L17.8161 39.4442C17.8415 39.4806 17.8568 39.5013 17.8568 39.5013L18.6312 40.8608L20.3697 43.887C20.4206 44.0094 20.4799 44.1215 20.5426 44.2284C20.5663 44.2648 20.5883 44.3044 20.6138 44.339C20.6205 44.3493 20.6273 44.3597 20.6341 44.37C20.8493 44.6736 21.0899 44.9083 21.3305 45.0929C21.5424 45.2517 21.6983 45.3259 21.6983 45.3259L26.3882 37.0443Z" fill="#1967D2"/>
<path d="M37.6181 37.0442H47.0821C47.0346 38.1692 46.5465 38.8267 46.5465 38.8267L46.1906 39.4442C46.1653 39.4806 46.15 39.5013 46.15 39.5013L45.3756 40.8608L43.637 43.887C43.5862 44.0094 43.5269 44.1215 43.4642 44.2284C43.4405 44.2648 43.4184 44.3044 43.3931 44.339C43.3862 44.3493 43.3795 44.3597 43.3726 44.37C43.1575 44.6736 42.9169 44.9083 42.6762 45.0929C42.4645 45.2517 42.3085 45.3259 42.3085 45.3259L37.6181 37.0442Z" fill="#EA4335"/>
</svg>
