<svg width="64" height="64" viewBox="0 0 64 64" fill="none" xmlns="http://www.w3.org/2000/svg">
<path d="M27.0963 46.6286C29.8032 46.6286 32.0002 44.4441 32.0002 41.7524V36.8762H27.0963C24.3893 36.8762 22.1924 39.0608 22.1924 41.7524C22.1924 44.4441 24.3893 46.6286 27.0963 46.6286Z" fill="#0ACF83"/>
<path d="M22.1924 32C22.1924 29.3084 24.3893 27.1238 27.0963 27.1238H32.0002V36.8762H27.0963C24.3893 36.8762 22.1924 34.6917 22.1924 32Z" fill="#A259FF"/>
<path d="M22.1924 22.2477C22.1924 19.556 24.3893 17.3715 27.0963 17.3715H32.0002V27.1238H27.0963C24.3893 27.1238 22.1924 24.9393 22.1924 22.2477Z" fill="#F24E1E"/>
<path d="M32.0002 17.3715H36.9041C39.611 17.3715 41.808 19.556 41.808 22.2477C41.808 24.9393 39.611 27.1238 36.9041 27.1238H32.0002V17.3715Z" fill="#FF7262"/>
<path d="M41.808 32C41.808 34.6917 39.611 36.8762 36.9041 36.8762C34.1971 36.8762 32.0002 34.6917 32.0002 32C32.0002 29.3084 34.1971 27.1238 36.9041 27.1238C39.611 27.1238 41.808 29.3084 41.808 32Z" fill="#1ABCFE"/>
</svg>
