<svg width="64" height="64" viewBox="0 0 64 64" fill="none" xmlns="http://www.w3.org/2000/svg">
<g clip-path="url(#clip0_28019_8255)">
<path fill-rule="evenodd" clip-rule="evenodd" d="M39.6474 50.036C40.2234 50.2604 40.8801 50.246 41.4615 49.9662L48.991 46.3432C49.7821 45.9625 50.2853 45.1618 50.2853 44.2833V19.7169C50.2853 18.8384 49.7822 18.0377 48.991 17.657L41.4615 14.0338C40.6985 13.6667 39.8056 13.7566 39.1359 14.2435C39.0403 14.313 38.9492 14.3906 38.8637 14.4762L24.4494 27.6266L18.1709 22.8607C17.5864 22.417 16.7689 22.4534 16.2261 22.9471L14.2123 24.7789C13.5484 25.3829 13.5476 26.4275 14.2107 27.0325L19.6557 32L14.2107 36.9676C13.5476 37.5725 13.5484 38.6172 14.2123 39.2211L16.2261 41.0529C16.7689 41.5467 17.5864 41.5831 18.1709 41.1394L24.4494 36.3735L38.8637 49.5238C39.0917 49.752 39.3594 49.9238 39.6474 50.036ZM41.148 23.6979L30.2109 32L41.148 40.3022V23.6979Z" fill="white"/>
<path d="M48.9914 17.6629L41.4561 14.0348C40.5839 13.6148 39.5415 13.792 38.857 14.4765L14.189 36.9679C13.5255 37.5728 13.5263 38.6174 14.1907 39.2214L16.2056 41.0532C16.7488 41.547 17.5668 41.5833 18.1516 41.1397L47.8575 18.6042C48.8542 17.8481 50.2856 18.5589 50.2856 19.8098V19.7224C50.2856 18.8443 49.7826 18.0438 48.9914 17.6629Z" fill="#0065A9"/>
<path d="M48.9914 46.3374L41.4561 49.9655C40.5839 50.3855 39.5415 50.2083 38.857 49.5238L14.189 27.0324C13.5255 26.4275 13.5263 25.3828 14.1907 24.7789L16.2056 22.9471C16.7488 22.4533 17.5668 22.4169 18.1516 22.8606L47.8575 45.3961C48.8542 46.1522 50.2856 45.4414 50.2856 44.1905V44.2779C50.2856 45.156 49.7826 45.9564 48.9914 46.3374Z" fill="#007ACC"/>
<path d="M41.4564 49.9662C40.5839 50.386 39.5415 50.2084 38.8569 49.5238C39.7004 50.3673 41.1426 49.7699 41.1426 48.5771V15.423C41.1426 14.2301 39.7004 13.6327 38.8569 14.4762C39.5415 13.7916 40.5839 13.6142 41.4564 14.0338L48.9904 17.657C49.7821 18.0377 50.2855 18.8384 50.2855 19.7169V44.2833C50.2855 45.1618 49.7821 45.9625 48.9904 46.3432L41.4564 49.9662Z" fill="#1F9CF0"/>
<g style="mix-blend-mode:overlay" opacity="0.25">
<path fill-rule="evenodd" clip-rule="evenodd" d="M39.6254 50.0361C40.2014 50.2605 40.8582 50.2461 41.4395 49.9664L48.969 46.3434C49.7602 45.9626 50.2633 45.1619 50.2633 44.2834V19.717C50.2633 18.8385 49.7602 18.0378 48.969 17.6571L41.4395 14.034C40.6766 13.6668 39.7836 13.7567 39.114 14.2436C39.0183 14.3131 38.9272 14.3908 38.8417 14.4763L24.4275 27.6267L18.1489 22.8608C17.5645 22.4171 16.7469 22.4535 16.2041 22.9473L14.1904 24.779C13.5264 25.3831 13.5256 26.4276 14.1887 27.0326L19.6337 32.0001L14.1887 36.9677C13.5256 37.5727 13.5264 38.6173 14.1904 39.2212L16.2041 41.053C16.7469 41.5468 17.5645 41.5832 18.1489 41.1395L24.4275 36.3736L38.8417 49.524C39.0697 49.7521 39.3375 49.924 39.6254 50.0361ZM41.126 23.698L30.1889 32.0001L41.126 40.3023V23.698Z" fill="url(#paint0_linear_28019_8255)"/>
</g>
</g>
<defs>
<linearGradient id="paint0_linear_28019_8255" x1="31.9776" y1="13.8087" x2="31.9776" y2="50.1916" gradientUnits="userSpaceOnUse">
<stop stop-color="white"/>
<stop offset="1" stop-color="white" stop-opacity="0"/>
</linearGradient>
<clipPath id="clip0_28019_8255">
<rect width="36.5714" height="36.5714" fill="white" transform="translate(13.7144 13.7142)"/>
</clipPath>
</defs>
</svg>
