<svg width="64" height="64" viewBox="0 0 64 64" fill="none" xmlns="http://www.w3.org/2000/svg">
<path d="M29.0001 32.0675C29.7734 31.1379 30.7467 30.6731 31.9201 30.6731C33.1467 30.6731 34.1334 31.1379 34.8801 32.0675C35.6534 32.9671 36.04 34.2265 36.04 35.8458C36.04 37.495 35.6534 38.7845 34.8801 39.7141C34.1334 40.6136 33.1467 41.0635 31.9201 41.0635C30.7467 41.0635 29.7734 40.5986 29.0001 39.6691C28.2267 38.7395 27.8401 37.4651 27.8401 35.8458C27.8401 34.2565 28.2267 32.9971 29.0001 32.0675Z" fill="#E35335"/>
<path fill-rule="evenodd" clip-rule="evenodd" d="M12.8 8C10.149 8 8 10.149 8 12.8V51.2C8 53.851 10.149 56 12.8 56H51.2C53.851 56 56 53.851 56 51.2V12.8C56 10.149 53.851 8 51.2 8H12.8ZM39.36 24.5108C37.92 23.4613 36.3067 22.9365 34.52 22.9365C32.9467 22.9365 31.5866 23.3264 30.44 24.106C29.2934 24.8557 28.44 25.9052 27.88 27.2546V16.4494C27.88 15.7594 27.3825 15.2 26.7689 15.2H21.1111C20.4974 15.2 20 15.7594 20 16.4494V47.2357C20 47.9258 20.4974 48.4851 21.1111 48.4851H26.7689C27.3825 48.4851 27.88 47.9258 27.88 47.2357V44.4819C28.44 45.8313 29.2934 46.8958 30.44 47.6755C31.5866 48.4252 32.9467 48.8 34.52 48.8C36.3067 48.8 37.92 48.2902 39.36 47.2707C40.8 46.2212 41.9333 44.7218 42.76 42.7727C43.5866 40.7936 44 38.4846 44 35.8458C44 33.207 43.5866 30.913 42.76 28.9639C41.9333 27.0147 40.8 25.5304 39.36 24.5108Z" fill="#E35335"/>
</svg>
