<svg xmlns="http://www.w3.org/2000/svg" width="1600" height="900" viewBox="0 0 1600 900">
  <rect width="1600" height="900" fill="#fff7f3"/>
  <g transform="translate(470,150)"><svg x="0" y="0" width="904.8" height="696.8" viewBox="0 0 348 268" overflow="visible">
<path d="M115.524 267.929C53.5923 267.879 11.0617 176.263 9.54999 171.735C4.662 157.195 -10.6571 111.966 12.2711 67.4413C40.5913 12.5525 111.543 -10.9425 157.702 4.80468C189.096 15.4705 184.712 35.9972 224.974 55.3668C274.157 78.9624 302.275 58.7879 326.866 80.9749C352.617 104.168 352.465 154.026 339.061 187.08C320.769 232.158 300.663 259.125 255.865 267.979C218.272 268.029 166.822 267.979 115.524 267.929Z" fill="#ffe8dc"/>
</svg></g>
  <g transform="translate(1080,60)"><svg x="0" y="0" width="130" height="161.2" viewBox="0 0 100 124" overflow="visible">
<rect width="4" height="121" transform="matrix(-1 0 0 1 53.2119 0)" fill="#e76134"/>
<path d="M49.7119 86C73.4832 86 93.4923 102.106 99.4238 124H0C5.93152 102.106 25.9407 86 49.7119 86Z" fill="#e76134"/>
</svg></g>
  <g transform="translate(150,500)"><svg x="0" y="0" width="228.6" height="360.9" viewBox="0 0 254 401" overflow="visible">
<g opacity="0.7">
<path fill-rule="evenodd" clip-rule="evenodd" d="M23.307 115.427C36.9754 114.719 53.8807 122.697 55.3384 137.555C56.3977 148.35 56.0703 159.115 57.7092 169.895C59.0198 178.509 61.7922 186.779 65.5737 194.626C69.2101 202.173 76.7521 208.596 78.7134 216.658C79.9639 221.795 79.2641 229.021 77.54 234.045C75.4435 240.154 76.5579 239.671 80.7359 244.798C88.9227 254.843 96.2955 265.144 101.509 277.141C109.018 294.422 113.942 314.621 111.154 333.537C110.8 335.939 110.379 344.559 107.071 345.162C103.377 345.836 105.105 340.906 105.302 339.313C106.559 329.152 107.676 320.27 106.159 309.95C100.309 270.131 71.7441 243.897 53.1438 210.102C52.1215 208.359 49.963 204.209 48.4622 201.472C46.0923 197.148 43.7105 188.925 40.5026 185.719C34.4614 179.682 40.016 191.82 41.1924 194.137C42.6812 197.068 44.3182 200.184 45.844 202.752C52.8224 214.658 60.6118 227.654 67.8184 239.928C36.648 247.029 14.6956 209.555 6.33061 184.919C-0.561653 164.621 -8.80755 117.165 23.307 115.427Z" fill="#b4411a"/>
<path fill-rule="evenodd" clip-rule="evenodd" d="M206.51 77.7333C183.66 79.5464 168.991 94.6245 162.163 115.714C158.482 127.078 158.06 138.753 156.014 150.433C152.939 168.005 146.319 181.322 133.381 193.841C129.374 197.717 126.421 201.698 124.322 205.957C120.155 210.209 116.528 215.021 113.863 220.904C110.459 228.417 109.495 237.432 113.425 244.922C114.482 246.936 117.119 250.978 119.851 252.814C109.622 274.6 103.997 298.461 104.631 322.292C105.014 336.676 105.716 351.067 106.536 365.434C106.756 369.292 108.013 375.663 109.899 369.193C111.626 363.275 109.46 353.985 109.26 347.803C108.285 317.686 107.452 290.302 119.849 262.164C121.149 259.215 122.528 256.289 123.963 253.388C124.048 253.339 124.126 253.28 124.205 253.223C124.259 253.265 124.309 253.31 124.364 253.352C124.455 253.188 124.582 252.994 124.728 252.776C125.139 252.351 125.499 251.814 125.841 251.215C126.94 249.692 128.185 247.9 128.192 246.92C128.192 246.913 128.188 246.901 128.188 246.893C135.862 234.365 144.653 222.528 153.631 210.921C153.564 211.006 163.371 197.653 161.855 205.037C161.124 208.596 153.911 215.372 150.997 219.142C144.553 227.527 136.984 238.153 130.696 248.427C129.85 248.914 128.654 251.3 127.789 253.08C127.312 253.981 126.866 254.889 126.429 255.681C148.712 263.043 166.046 248.213 177.866 230.964C177.88 230.943 177.894 230.922 177.907 230.902C181.504 226.136 185.188 221.404 189.792 217.636C197.471 211.349 205.696 210.239 214.751 207.145C239.444 198.708 249.943 166.706 253.277 142.961C257.039 116.171 238.637 75.0921 206.51 77.7333Z" fill="#e76134"/>
<path fill-rule="evenodd" clip-rule="evenodd" d="M161.374 2.71325C137.921 27.1205 126.591 60.9751 117.62 92.8023C107.6 128.349 100.981 164.444 100.727 201.403C100.561 225.685 99.8999 250.118 101.318 274.371C101.82 282.984 102.679 291.614 104.044 300.134C104.157 300.835 107.212 319.861 110.134 315.427C111.796 312.906 107.002 295.691 106.641 292.823C104.604 276.673 104.13 260.404 104.229 244.138C104.392 217.355 103.603 190.71 106.318 164.026C106.722 160.041 107.042 155.857 107.989 151.959C108.994 147.815 107.713 149.624 110.986 147.983C114.167 146.39 118.097 146.617 121.397 144.616C134.484 136.68 141.179 116.293 146.391 102.917C152.351 87.6221 155.973 71.3105 158.867 55.2132C160.991 43.387 162.51 31.6319 163.369 19.6526C163.64 15.877 163.656 11.9293 164.398 8.21686C164.598 7.21566 165.601 5.44453 165.565 4.55747C165.488 2.68022 164.355 1.57689 164.262 0C163.28 0.883059 162.317 1.78814 161.374 2.71325Z" fill="#e76134"/>
<path fill-rule="evenodd" clip-rule="evenodd" d="M33.4972 327.912C33.4972 368.278 66.2195 401 106.585 401C146.95 401 179.673 368.278 179.673 327.912" fill="#e76134"/>
<path fill-rule="evenodd" clip-rule="evenodd" d="M156.673 263.921C174.762 262.587 194.962 277.18 203.687 292.367C210.722 304.61 209.536 320.689 205.192 333.697C202.283 342.406 195.933 354.823 185.344 354.944C172.096 355.095 171.458 338.721 171.201 329.15C170.861 316.424 169.253 305.338 159.225 296.664C157.988 295.594 156.688 294.591 155.389 293.589C154.236 292.699 153.084 291.81 151.973 290.873C151.796 290.723 151.617 290.574 151.439 290.423C147.892 287.443 144.169 284.313 143.715 279.4C143.059 272.282 147.076 271 153.212 272.323C153.41 272.366 153.948 272.569 154.679 272.846C157.812 274.034 164.498 276.569 163.234 273.539C162.757 272.398 161.018 271.493 158.823 270.815C153.142 270.197 146.366 269.48 144.417 269.909C123.397 274.52 115.212 303.638 113.039 322.138C112.804 324.135 112.615 326.138 112.449 328.145H108.587C108.856 323.3 109.209 318.463 110.019 313.671C113.118 295.346 122.804 268.432 144.05 265.457C144.834 265.347 147.717 265.328 151.209 265.534C152.864 264.608 154.719 264.049 156.673 263.921Z" fill="#b4411a"/>
</g>
</svg></g>
  <g transform="translate(640,350)"><svg x="0" y="0" width="278.25" height="498.75" viewBox="0 0 159 285" overflow="visible">
<path d="M22.6069 190.178H34.9377V283.687H22.6069V190.178Z" fill="#C1A443"/>
<path d="M71.9306 190.178H84.2614V283.687H71.9306V190.178Z" fill="#C1A443"/>
<path d="M103.358 70.7438L105.865 120.975L117.655 157.809H96.4296L85.4054 126.073L81.9604 90.0044L103.358 70.7438Z" fill="#F4D364"/>
<path d="M103.952 246.312L99.6836 266.224L114.019 267.93L118.095 248.324L103.952 246.312Z" fill="#FCC9A7"/>
<path d="M98.8221 264.431C99.1858 263.357 100.334 262.974 101.119 263.664C102.65 265.025 105.406 266.692 109.483 266.29C113.712 265.868 115.301 263.376 115.913 261.575C116.239 260.636 117.138 260.157 117.942 260.559L143.608 273.476C145.158 274.262 146.383 275.719 146.995 277.539C147.57 279.245 146.421 281.085 144.814 281.046L100.468 279.82C98.7264 279.782 97.3869 278.057 97.54 276.064L98.2673 266.29C98.2864 266.136 98.3054 265.964 98.3628 265.81L98.8221 264.431Z" fill="#3f1000"/>
<path d="M104.2 150.029H137.483C137.483 150.029 157.751 148.899 158.957 165.553C160.163 182.207 129.234 229.851 124.392 255.302L96.5635 253.003L116.602 183.798L66.7638 184.085C63.07 184.104 59.3953 183.568 55.9119 182.36C46.2084 178.987 31.3947 174.158 39.4714 147.404L104.2 150.029Z" fill="#3f1000"/>
<path d="M78.5152 246.387L71.74 270.189L86.0754 271.895L92.6593 248.399L78.5152 246.387Z" fill="#FCC9A7"/>
<path d="M70.8794 268.384C71.243 267.31 72.3912 266.927 73.1759 267.617C74.707 268.978 77.463 270.645 81.5397 270.243C85.7694 269.821 87.3582 267.329 87.9706 265.528C88.296 264.589 89.1955 264.11 89.9994 264.512L115.665 277.429C117.215 278.215 118.44 279.672 119.053 281.492C119.627 283.198 118.478 285.038 116.871 284.999L71.7596 283.773C70.0179 283.735 68.6784 282.01 68.8315 280.017L70.3433 270.243C70.3624 270.089 70.3816 269.917 70.439 269.763L70.8794 268.384Z" fill="#3f1000"/>
<path d="M64.4288 50.9954C63.6824 51.7237 30.2846 60.252 30.2846 60.252L37.4235 79.2443L73.941 76.4846L64.4288 50.9954Z" fill="#F7EBE7"/>
<path d="M78.2082 55.5775C78.2082 55.5775 99.9694 63.5309 103.357 70.7369C102.19 80.9134 98.6106 90.7066 92.7157 99.0816C85.4811 109.354 76.5431 127.005 78.1891 150.022H15.2787C15.2787 150.022 18.6663 85.2638 37.2887 60.4071L78.2082 55.5775Z" fill="#FFECAC"/>
<path d="M71.0735 65.8446C64.8915 64.5798 60.9106 58.5429 62.1738 52.3526L65.8676 34.2419L88.2413 38.8221L84.5475 56.933C83.2843 63.1232 77.2554 67.1095 71.0735 65.8446Z" fill="#FCC9A7"/>
<path d="M64.3355 40.5753C64.3355 40.5753 66.6896 55.2555 78.0966 56.1371C88.0872 56.9037 87.1305 42.4343 87.1305 42.4343L64.3355 40.5753Z" fill="#F4BE9A"/>
<path d="M77.1968 48.0862L75.2254 47.6263C65.3305 45.3265 59.1677 35.4375 61.4644 25.5485L64.0673 14.2604C66.364 4.35212 76.2398 -1.81892 86.1156 0.480852L88.0869 0.940806C97.9819 3.24058 104.145 13.1296 101.848 23.0187L99.2451 34.3068C96.9484 44.215 87.0726 50.386 77.1968 48.0862Z" fill="#FCC9A7"/>
<path d="M67.6463 24.5564C66.8233 28.0828 63.3017 30.2867 59.7801 29.4818C56.2393 28.6577 54.0577 25.1314 54.8615 21.6051C55.6845 18.0787 59.2059 15.8748 62.7275 16.6797C66.2682 17.5038 68.4692 21.0301 67.6463 24.5564Z" fill="#FCC9A7"/>
<path d="M78.5535 65.1445L69.3095 65.3168L75.7786 78.7321L82.7642 65.8726L78.5535 65.1445Z" fill="#3f1000"/>
<path d="M61.3847 51.5917L73.289 65.5053L65.5379 74.417L51.279 54.7922C51.279 54.7922 54.9348 48.9086 61.3847 51.5917Z" fill="#FFF7F3"/>
<path d="M78.5537 65.1473L85.4055 72.8899L90.2286 60.816C90.2286 60.816 88.9654 55.3924 85.0227 56.4273L78.5537 65.1473Z" fill="#FFF7F3"/>
<path d="M59.3188 129.826L78.458 136.131L79.7211 147.381L54.3426 139.792L59.3188 129.826Z" fill="#FCC9A7"/>
<path d="M75.6053 143.573C75.6053 150.147 80.9262 155.494 87.51 155.494C94.0748 155.494 99.4144 150.166 99.4144 143.573C99.4144 137 94.0939 131.653 87.51 131.653C80.9453 131.653 75.6053 136.981 75.6053 143.573Z" fill="#FCC9A7"/>
<path d="M78.2092 150.019H111.473C111.473 150.019 131.741 148.888 132.947 165.542C134.153 182.196 100.946 232.906 96.1043 258.338L68.2759 256.038L90.5922 183.768L40.7538 184.055C37.06 184.074 33.3853 183.538 29.9019 182.33C20.1984 178.957 5.38486 174.128 13.4616 147.374L78.2092 150.019Z" fill="#3f1000"/>
<path d="M107.856 145.682H68.5635C67.3578 145.682 66.4008 146.659 66.4008 147.847C66.4008 149.055 67.3769 150.013 68.5635 150.013H108.622L107.856 145.682Z" fill="#B2B2B2"/>
<path d="M44.0063 78.3427L22.9915 112.322L73.289 130.298L66.3991 145.209C66.3991 145.209 23.3934 140.379 2.60831 124.338C0.694395 122.862 -0.262554 120.467 0.0628125 118.071C1.03891 110.405 5.21124 91.7963 22.9915 65.3489C26.6088 59.9636 33.8051 58.3346 39.4129 61.5926C45.2504 64.9656 47.2983 72.4399 44.0063 78.3427Z" fill="#F4D364"/>
<path d="M98.2889 104.421L87.0328 74.6656" stroke="#EADDD8" stroke-width="0.761747" stroke-miterlimit="10" stroke-linecap="round" stroke-linejoin="round"/>
</svg></g>
  <rect x="900" y="210" width="200" height="120" rx="30" fill="#3f1000"/><path d="M 940 326 L 986 326 L 950 366 Z" fill="#3f1000"/><circle cx="940" cy="272" r="9" fill="#ffad92"/><circle cx="980" cy="272" r="9" fill="#ffad92"/><circle cx="1020" cy="272" r="9" fill="#ffad92"/>
  <path d="M 560 280 C 566.8 293.2 566.8 293.2 580 300 C 566.8 306.8 566.8 306.8 560 320 C 553.2 306.8 553.2 306.8 540 300 C 553.2 293.2 553.2 293.2 560 280 Z" fill="#b4411a"/>
  <path d="M 1180 415 C 1185.1 424.9 1185.1 424.9 1195 430 C 1185.1 435.1 1185.1 435.1 1180 445 C 1174.9 435.1 1174.9 435.1 1165 430 C 1174.9 424.9 1174.9 424.9 1180 415 Z" fill="#b4411a"/>
</svg>
