<svg xmlns="http://www.w3.org/2000/svg" width="1600" height="900" viewBox="0 0 1600 900">
  <rect width="1600" height="900" fill="#f8fff3"/>
  <g transform="translate(350,130)"><svg x="0" y="0" width="1009.2" height="777.2" viewBox="0 0 348 268" overflow="visible">
<path d="M115.524 267.929C53.5923 267.879 11.0617 176.263 9.54999 171.735C4.662 157.195 -10.6571 111.966 12.2711 67.4413C40.5913 12.5525 111.543 -10.9425 157.702 4.80468C189.096 15.4705 184.712 35.9972 224.974 55.3668C274.157 78.9624 302.275 58.7879 326.866 80.9749C352.617 104.168 352.465 154.026 339.061 187.08C320.769 232.158 300.663 259.125 255.865 267.979C218.272 268.029 166.822 267.979 115.524 267.929Z" fill="#daffc0"/>
</svg></g>
  <g transform="translate(120,560)"><svg x="0" y="0" width="203.2" height="320.8" viewBox="0 0 254 401" overflow="visible">
<g opacity="0.7">
<path fill-rule="evenodd" clip-rule="evenodd" d="M23.307 115.427C36.9754 114.719 53.8807 122.697 55.3384 137.555C56.3977 148.35 56.0703 159.115 57.7092 169.895C59.0198 178.509 61.7922 186.779 65.5737 194.626C69.2101 202.173 76.7521 208.596 78.7134 216.658C79.9639 221.795 79.2641 229.021 77.54 234.045C75.4435 240.154 76.5579 239.671 80.7359 244.798C88.9227 254.843 96.2955 265.144 101.509 277.141C109.018 294.422 113.942 314.621 111.154 333.537C110.8 335.939 110.379 344.559 107.071 345.162C103.377 345.836 105.105 340.906 105.302 339.313C106.559 329.152 107.676 320.27 106.159 309.95C100.309 270.131 71.7441 243.897 53.1438 210.102C52.1215 208.359 49.963 204.209 48.4622 201.472C46.0923 197.148 43.7105 188.925 40.5026 185.719C34.4614 179.682 40.016 191.82 41.1924 194.137C42.6812 197.068 44.3182 200.184 45.844 202.752C52.8224 214.658 60.6118 227.654 67.8184 239.928C36.648 247.029 14.6956 209.555 6.33061 184.919C-0.561653 164.621 -8.80755 117.165 23.307 115.427Z" fill="#71a74a"/>
<path fill-rule="evenodd" clip-rule="evenodd" d="M206.51 77.7333C183.66 79.5464 168.991 94.6245 162.163 115.714C158.482 127.078 158.06 138.753 156.014 150.433C152.939 168.005 146.319 181.322 133.381 193.841C129.374 197.717 126.421 201.698 124.322 205.957C120.155 210.209 116.528 215.021 113.863 220.904C110.459 228.417 109.495 237.432 113.425 244.922C114.482 246.936 117.119 250.978 119.851 252.814C109.622 274.6 103.997 298.461 104.631 322.292C105.014 336.676 105.716 351.067 106.536 365.434C106.756 369.292 108.013 375.663 109.899 369.193C111.626 363.275 109.46 353.985 109.26 347.803C108.285 317.686 107.452 290.302 119.849 262.164C121.149 259.215 122.528 256.289 123.963 253.388C124.048 253.339 124.126 253.28 124.205 253.223C124.259 253.265 124.309 253.31 124.364 253.352C124.455 253.188 124.582 252.994 124.728 252.776C125.139 252.351 125.499 251.814 125.841 251.215C126.94 249.692 128.185 247.9 128.192 246.92C128.192 246.913 128.188 246.901 128.188 246.893C135.862 234.365 144.653 222.528 153.631 210.921C153.564 211.006 163.371 197.653 161.855 205.037C161.124 208.596 153.911 215.372 150.997 219.142C144.553 227.527 136.984 238.153 130.696 248.427C129.85 248.914 128.654 251.3 127.789 253.08C127.312 253.981 126.866 254.889 126.429 255.681C148.712 263.043 166.046 248.213 177.866 230.964C177.88 230.943 177.894 230.922 177.907 230.902C181.504 226.136 185.188 221.404 189.792 217.636C197.471 211.349 205.696 210.239 214.751 207.145C239.444 198.708 249.943 166.706 253.277 142.961C257.039 116.171 238.637 75.0921 206.51 77.7333Z" fill="#9ada6c"/>
<path fill-rule="evenodd" clip-rule="evenodd" d="M161.374 2.71325C137.921 27.1205 126.591 60.9751 117.62 92.8023C107.6 128.349 100.981 164.444 100.727 201.403C100.561 225.685 99.8999 250.118 101.318 274.371C101.82 282.984 102.679 291.614 104.044 300.134C104.157 300.835 107.212 319.861 110.134 315.427C111.796 312.906 107.002 295.691 106.641 292.823C104.604 276.673 104.13 260.404 104.229 244.138C104.392 217.355 103.603 190.71 106.318 164.026C106.722 160.041 107.042 155.857 107.989 151.959C108.994 147.815 107.713 149.624 110.986 147.983C114.167 146.39 118.097 146.617 121.397 144.616C134.484 136.68 141.179 116.293 146.391 102.917C152.351 87.6221 155.973 71.3105 158.867 55.2132C160.991 43.387 162.51 31.6319 163.369 19.6526C163.64 15.877 163.656 11.9293 164.398 8.21686C164.598 7.21566 165.601 5.44453 165.565 4.55747C165.488 2.68022 164.355 1.57689 164.262 0C163.28 0.883059 162.317 1.78814 161.374 2.71325Z" fill="#9ada6c"/>
<path fill-rule="evenodd" clip-rule="evenodd" d="M33.4972 327.912C33.4972 368.278 66.2195 401 106.585 401C146.95 401 179.673 368.278 179.673 327.912" fill="#9ada6c"/>
<path fill-rule="evenodd" clip-rule="evenodd" d="M156.673 263.921C174.762 262.587 194.962 277.18 203.687 292.367C210.722 304.61 209.536 320.689 205.192 333.697C202.283 342.406 195.933 354.823 185.344 354.944C172.096 355.095 171.458 338.721 171.201 329.15C170.861 316.424 169.253 305.338 159.225 296.664C157.988 295.594 156.688 294.591 155.389 293.589C154.236 292.699 153.084 291.81 151.973 290.873C151.796 290.723 151.617 290.574 151.439 290.423C147.892 287.443 144.169 284.313 143.715 279.4C143.059 272.282 147.076 271 153.212 272.323C153.41 272.366 153.948 272.569 154.679 272.846C157.812 274.034 164.498 276.569 163.234 273.539C162.757 272.398 161.018 271.493 158.823 270.815C153.142 270.197 146.366 269.48 144.417 269.909C123.397 274.52 115.212 303.638 113.039 322.138C112.804 324.135 112.615 326.138 112.449 328.145H108.587C108.856 323.3 109.209 318.463 110.019 313.671C113.118 295.346 122.804 268.432 144.05 265.457C144.834 265.347 147.717 265.328 151.209 265.534C152.864 264.608 154.719 264.049 156.673 263.921Z" fill="#71a74a"/>
</g>
</svg></g>
  <g transform="translate(360,300)"><svg x="0" y="0" width="475" height="600" viewBox="0 0 380 480" overflow="visible">
<path fill-rule="evenodd" clip-rule="evenodd" d="M195.935 102.244C202.411 106.147 208.774 108.033 211.76 107.263C219.25 105.333 219.938 77.9351 214.143 67.1339C208.349 56.3328 178.558 51.625 177.057 73.0255C176.536 80.4529 179.654 87.0814 184.262 92.4901L176 131H200L195.935 102.244Z" fill="#B28B67"/>
<path fill-rule="evenodd" clip-rule="evenodd" d="M196.541 74.7594C198.657 71.6093 200.688 69.2064 203.331 67.8111C214.084 67.981 215.342 66.0533 215.342 59.5561C213.606 58.3132 207.478 56.2206 200.615 55.632C197.114 54.6301 192.966 54.8185 188.971 56.4897C184.04 57.889 179.864 60.9027 178.02 66.5446C171.345 78.0615 176.41 90.0503 183.237 94.1457C185.054 91.993 186.639 89.9067 188.055 87.9096C186.918 86.7993 186.212 85.2497 186.212 83.5353C186.212 80.1582 188.95 77.4205 192.327 77.4205C192.576 77.4205 192.82 77.4353 193.061 77.464C193.213 81.6864 193.839 95.9715 195.48 100.933C197.418 106.784 208.719 108.22 212.66 108.22C216.065 108.22 215.949 104.996 215.865 102.686C215.854 102.353 215.842 102.039 215.842 101.756C215.842 101.166 215.074 101.168 214.207 101.169C213.081 101.172 211.787 101.174 211.787 99.8822C211.787 98.4737 213.733 97.3933 215.475 96.4264C216.561 95.8232 217.569 95.2642 217.974 94.6974C219.252 92.909 219.682 90.4971 217.755 90.4971C216.701 90.4971 215.256 91.1044 213.516 91.8351C210.891 92.9383 207.597 94.3225 203.972 94.3225C197.983 94.3225 196.56 75.0012 196.541 74.7594Z" fill="#613A25"/>
<path fill-rule="evenodd" clip-rule="evenodd" d="M168 214L204.255 341.227L230.707 435H250L221.891 214H168Z" fill="#2a5542"/>
<path fill-rule="evenodd" clip-rule="evenodd" d="M158.304 214C157.466 279.574 154.606 315.34 153.726 321.298C152.845 327.256 139.532 365.156 113.786 435H133.773C166.549 367.997 184.846 330.096 188.663 321.298C192.479 312.5 204.259 276.734 222 214H158.304Z" fill="#9ada6c"/>
<path fill-rule="evenodd" clip-rule="evenodd" d="M112 453L113 432H134C148.936 442.5 173 449 173 449V453H135L122 451V453H112Z" fill="#2a5542"/>
<path fill-rule="evenodd" clip-rule="evenodd" d="M228 453L229 432H250C264.936 442.5 289 449 289 449V453H251L238 451V453H228Z" fill="#2a5542"/>
<path fill-rule="evenodd" clip-rule="evenodd" d="M90.3643 250.284C94.0937 244.804 115.667 186.536 115.667 186.536L133.379 189.108C133.379 189.108 104.861 250.982 102.801 254.554C100.126 259.193 102.492 266.812 104.097 271.978C104.345 272.777 104.575 273.518 104.766 274.179C101.395 275.153 100.112 273.223 98.7601 271.189C97.2331 268.892 95.6173 266.461 90.803 267.928C88.943 268.495 87.156 269.223 85.4102 269.934C79.3796 272.391 73.8395 274.648 67.4764 269.37C66.4676 268.533 65.6178 265.797 68.8242 264.203C76.8125 260.231 88.5411 252.963 90.3643 250.284ZM282.545 223.202L252.359 197.61L244.109 214.507L274.706 229.777C282.885 240.868 287.563 245.581 288.74 243.914C289.732 242.509 289.133 241.087 288.581 239.776C288.151 238.756 287.75 237.803 288.152 236.98C289.07 235.1 295.042 235.722 300.684 236.555C306.326 237.388 304.849 234.748 303.569 233.406C298.021 229.536 291.013 226.134 282.545 223.202Z" fill="#B28B67"/>
<path fill-rule="evenodd" clip-rule="evenodd" d="M189.695 114.332L200.67 110.703C215.557 147.893 237.761 183.876 274.857 214.27L265.684 230.097C233.081 210.892 202.219 195.973 189.695 167.155C185.492 157.483 189.352 125.897 189.695 114.332Z" fill="#bcff8c"/>
<path fill-rule="evenodd" clip-rule="evenodd" d="M152 219C152 219 199.157 224 226.236 219C228.473 218.587 228.826 214.842 227.788 212.301C211.636 172.724 200.56 138.192 200.56 110.703C196.115 112.944 185 111.374 185 111.374C165.086 139.703 155.933 172.206 152 219Z" fill="#F4D364"/>
<path fill-rule="evenodd" clip-rule="evenodd" d="M179.293 109C179.807 108.654 180.079 108.481 180.079 108.481L180.049 109H188.349C188.766 111.453 189.376 120.543 190.267 133.798C193.504 181.965 200.436 285.127 215.191 324.606H113.385C115.533 279.722 132.082 226.047 149.224 180.47C136.575 193.056 121.801 214.153 109.862 249.273L90.7925 244.378C110.226 160.638 167.162 117.452 178.21 109.744C178.318 109.495 178.425 109.247 178.532 109H179.293Z" fill="#bcff8c"/>
</svg></g>
  <g transform="translate(1279.2,320) scale(-1,1)"><svg x="0" y="0" width="299.2" height="544" viewBox="0 0 176 320" overflow="visible">
<path fill-rule="evenodd" clip-rule="evenodd" d="M63.2005 44.7283C58.7163 41.6672 55.0965 37.4131 54.0198 31.8479C50.9172 15.8133 73.9457 13.3531 80.3729 20.1434C86.8001 26.9338 91.6875 47.2169 86.5116 50.1252C84.4475 51.285 79.3556 51.1631 73.7824 49.5803L82.4636 69.9169L64.6584 74.6878L63.2005 44.7283Z" fill="#784931"/>
<path fill-rule="evenodd" clip-rule="evenodd" d="M71.0223 13.3776C68.3923 13.2942 64.7937 13.9912 63.3531 14.558C63.6605 12.3245 63.3967 9.9986 62.5399 7.89469C61.7074 5.85036 60.271 4.3046 58.8831 2.6534C58.2434 1.8923 57.5508 1.15047 56.6855 0.66906C55.804 0.178586 54.7982 -0.0315726 53.8121 0.0038223C52.8029 0.0399921 51.8138 0.324533 50.9148 0.777981C50.5171 0.978564 50.1904 1.27069 49.8058 1.48747C49.4119 1.70953 49.1364 1.5021 48.7587 1.32065C47.8485 0.883479 46.6797 0.860442 45.7136 0.998996C44.6296 1.1545 43.5819 1.60353 42.672 2.2141C41.7863 2.80846 40.9947 3.60036 40.501 4.57729C40.2811 5.01218 40.1032 5.48779 40.0362 5.97823C40.0088 6.17948 40.0249 6.29002 39.8605 6.40509C39.7085 6.51157 39.512 6.56614 39.3538 6.67111C37.824 7.68583 36.7317 9.35827 36.392 11.2208C36.1939 12.3075 36.4325 14.0632 37.0016 15.9502C37.5707 17.8373 40.6348 22.338 42.7414 23.7147C44.6219 24.9434 47.0351 25.4402 49.2132 25.357C48.2642 27.266 47.874 29.4382 47.7289 31.58C47.5714 33.9064 47.7138 36.2417 48.1518 38.5427C48.5681 40.7288 49.1609 42.9997 50.2301 44.9619C51.2301 46.7967 52.6758 48.1344 54.6428 48.7017C55.5438 48.9616 56.4726 49.0894 57.398 49.1856C58.3101 49.2804 59.2223 49.3658 60.1365 49.3112C61.8665 49.2077 63.7408 48.6437 64.6574 47.0113C64.9877 46.4229 65.3314 45.7026 65.5109 45.0438C65.5755 44.8068 65.6116 44.6535 65.4128 44.4921C65.1747 44.2988 64.8442 44.1903 64.5706 44.0625C63.0105 43.3338 61.8394 42.1166 61.1858 40.4723C60.5227 38.804 60.3938 36.4558 61.8819 35.2514C63.7188 33.7647 66.301 34.2144 68.4206 34.7105C68.47 31.7436 69.4227 28.8288 71.62 26.8852C74.0509 24.7349 77.2266 23.7086 79.7883 21.7362C80.4558 21.2222 81.126 20.6622 81.5085 19.8769C81.6683 19.5487 81.8469 19.1306 81.8448 18.7537C81.8421 18.2586 81.4372 17.9515 81.1081 17.6531C79.3628 16.0713 73.6523 13.461 71.0223 13.3776Z" fill="#2a5542"/>
<path fill-rule="evenodd" clip-rule="evenodd" d="M68.7194 136.688L96.5653 234.028L116.882 305.773H131.7L110.111 136.688H68.7194Z" fill="#2a5542"/>
<path fill-rule="evenodd" clip-rule="evenodd" d="M61.2725 136.688C60.6284 186.858 58.4321 214.222 57.7559 218.781C57.0796 223.339 46.8544 252.336 27.0802 305.773H42.4307C67.6048 254.509 81.6577 225.512 84.5892 218.781C87.5208 212.049 96.5678 184.685 110.194 136.688H61.2725Z" fill="#71a74a"/>
<path fill-rule="evenodd" clip-rule="evenodd" d="M25.7085 319.663L26.4766 303.534H42.6058C50.2538 308.91 60.2385 313.263 72.56 316.591V319.663H43.3738L33.3891 318.127V319.663H25.7085Z" fill="#2a5542"/>
<path fill-rule="evenodd" clip-rule="evenodd" d="M114.803 319.663L115.571 303.534H131.7C139.348 308.91 149.333 313.263 161.654 316.591V319.663H132.468L122.483 318.127V319.663H114.803Z" fill="#2a5542"/>
<path fill-rule="evenodd" clip-rule="evenodd" d="M131.324 116.411L157.553 131.646C164.347 132.724 170.099 134.35 174.809 136.523C175.956 137.362 177.423 139.152 173.045 139.278C168.667 139.404 164.067 139.732 163.622 141.269C163.177 142.807 165.99 144.293 164.987 146.41C164.318 147.821 160.154 144.898 152.495 137.641L127.326 130.228L131.324 116.411ZM26.4619 126.306L40.2003 125.88C31.2942 159.463 26.4799 177.241 25.7572 179.216C24.1313 183.66 28.1178 190.198 29.8477 193.726C24.6932 196.244 24.9553 187.59 18.457 190.883C12.5256 193.888 8.11408 199.108 1.00444 195.08C0.130348 194.584 -0.875561 192.638 1.33812 191.011C6.85322 186.956 14.76 179.921 15.7835 177.662C17.1793 174.58 20.7388 157.462 26.4619 126.306Z" fill="#B28B67"/>
<path fill-rule="evenodd" clip-rule="evenodd" d="M72.8722 62.088L80.6918 57.8926C96.8882 83.8987 118.458 108.021 150.551 125.949L145.713 139.085C118.504 128.978 93.1797 121.866 79.8825 101.846C75.4196 95.1264 74.1476 70.8383 72.8722 62.088Z" fill="#bcff8c"/>
<path fill-rule="evenodd" clip-rule="evenodd" d="M58.2515 145.895C82.4734 144.211 101.191 140.911 114.403 135.994C116.04 135.385 115.81 132.519 114.688 130.745C97.2182 103.111 84.2574 78.5972 80.6093 57.9073C78.5658 59.4271 74.6724 60.2874 68.9288 60.4882C57.6258 84.4657 55.0158 110.151 58.2515 145.895Z" fill="#2a5542"/>
<path fill-rule="evenodd" clip-rule="evenodd" d="M64.8691 59.3613L71.1464 58.2545C74.1163 66.5507 99.1507 181.571 120.064 216.953L43.0593 230.531C38.6081 195.525 44.4248 151.505 51.6126 114.26C41.7105 127.082 34.6384 147.095 30.3964 174.3L15.323 173.159C17.9391 125.283 34.029 87.596 63.5927 60.0979C63.6357 59.919 63.6785 59.741 63.7211 59.5638L64.2766 59.4658C64.458 59.2992 64.64 59.1329 64.8224 58.9671L64.8691 59.3613Z" fill="#bcff8c"/>
</svg></g>
  <rect x="690" y="170" width="200" height="120" rx="30" fill="#2a5542"/><path d="M 730 286 L 776 286 L 740 326 Z" fill="#2a5542"/><circle cx="730" cy="232" r="9" fill="#bcff8c"/><circle cx="770" cy="232" r="9" fill="#bcff8c"/><circle cx="810" cy="232" r="9" fill="#bcff8c"/>
  <path d="M 640 148 C 647.48 162.52 647.48 162.52 662 170 C 647.48 177.48 647.48 177.48 640 192 C 632.52 177.48 632.52 177.48 618 170 C 632.52 162.52 632.52 162.52 640 148 Z" fill="#71a74a"/>
  <path d="M 920 434 C 925.44 444.56 925.44 444.56 936 450 C 925.44 455.44 925.44 455.44 920 466 C 914.56 455.44 914.56 455.44 904 450 C 914.56 444.56 914.56 444.56 920 434 Z" fill="#71a74a"/>
  <path d="M 560 466 C 564.76 475.24 564.76 475.24 574 480 C 564.76 484.76 564.76 484.76 560 494 C 555.24 484.76 555.24 484.76 546 480 C 555.24 475.24 555.24 475.24 560 466 Z" fill="#71a74a"/>
</svg>
