<svg xmlns="http://www.w3.org/2000/svg" width="1600" height="900" viewBox="0 0 1600 900">
  <rect width="1600" height="900" fill="#f8fff3"/>
  <g transform="translate(430,130)"><svg x="0" y="0" width="939.6" height="723.6" viewBox="0 0 348 268" overflow="visible">
<path d="M115.524 267.929C53.5923 267.879 11.0617 176.263 9.54999 171.735C4.662 157.195 -10.6571 111.966 12.2711 67.4413C40.5913 12.5525 111.543 -10.9425 157.702 4.80468C189.096 15.4705 184.712 35.9972 224.974 55.3668C274.157 78.9624 302.275 58.7879 326.866 80.9749C352.617 104.168 352.465 154.026 339.061 187.08C320.769 232.158 300.663 259.125 255.865 267.979C218.272 268.029 166.822 267.979 115.524 267.929Z" fill="#daffc0"/>
<clipPath id="blob430-130"><path d="M115.524 267.929C53.5923 267.879 11.0617 176.263 9.54999 171.735C4.662 157.195 -10.6571 111.966 12.2711 67.4413C40.5913 12.5525 111.543 -10.9425 157.702 4.80468C189.096 15.4705 184.712 35.9972 224.974 55.3668C274.157 78.9624 302.275 58.7879 326.866 80.9749C352.617 104.168 352.465 154.026 339.061 187.08C320.769 232.158 300.663 259.125 255.865 267.979C218.272 268.029 166.822 267.979 115.524 267.929Z"/></clipPath><g clip-path="url(#blob430-130)" opacity="0.09"><rect x="0" y="0" width="74" height="30" rx="4" fill="none" stroke="#71a74a" stroke-width="2.5"/><rect x="78" y="0" width="74" height="30" rx="4" fill="none" stroke="#71a74a" stroke-width="2.5"/><rect x="156" y="0" width="74" height="30" rx="4" fill="none" stroke="#71a74a" stroke-width="2.5"/><rect x="234" y="0" width="74" height="30" rx="4" fill="none" stroke="#71a74a" stroke-width="2.5"/><rect x="312" y="0" width="74" height="30" rx="4" fill="none" stroke="#71a74a" stroke-width="2.5"/><rect x="-37" y="34" width="74" height="30" rx="4" fill="none" stroke="#71a74a" stroke-width="2.5"/><rect x="41" y="34" width="74" height="30" rx="4" fill="none" stroke="#71a74a" stroke-width="2.5"/><rect x="119" y="34" width="74" height="30" rx="4" fill="none" stroke="#71a74a" stroke-width="2.5"/><rect x="197" y="34" width="74" height="30" rx="4" fill="none" stroke="#71a74a" stroke-width="2.5"/><rect x="275" y="34" width="74" height="30" rx="4" fill="none" stroke="#71a74a" stroke-width="2.5"/><rect x="0" y="68" width="74" height="30" rx="4" fill="none" stroke="#71a74a" stroke-width="2.5"/><rect x="78" y="68" width="74" height="30" rx="4" fill="none" stroke="#71a74a" stroke-width="2.5"/><rect x="156" y="68" width="74" height="30" rx="4" fill="none" stroke="#71a74a" stroke-width="2.5"/><rect x="234" y="68" width="74" height="30" rx="4" fill="none" stroke="#71a74a" stroke-width="2.5"/><rect x="312" y="68" width="74" height="30" rx="4" fill="none" stroke="#71a74a" stroke-width="2.5"/><rect x="-37" y="102" width="74" height="30" rx="4" fill="none" stroke="#71a74a" stroke-width="2.5"/><rect x="41" y="102" width="74" height="30" rx="4" fill="none" stroke="#71a74a" stroke-width="2.5"/><rect x="119" y="102" width="74" height="30" rx="4" fill="none" stroke="#71a74a" stroke-width="2.5"/><rect x="197" y="102" width="74" height="30" rx="4" fill="none" stroke="#71a74a" stroke-width="2.5"/><rect x="275" y="102" width="74" height="30" rx="4" fill="none" stroke="#71a74a" stroke-width="2.5"/><rect x="0" y="136" width="74" height="30" rx="4" fill="none" stroke="#71a74a" stroke-width="2.5"/><rect x="78" y="136" width="74" height="30" rx="4" fill="none" stroke="#71a74a" stroke-width="2.5"/><rect x="156" y="136" width="74" height="30" rx="4" fill="none" stroke="#71a74a" stroke-width="2.5"/><rect x="234" y="136" width="74" height="30" rx="4" fill="none" stroke="#71a74a" stroke-width="2.5"/><rect x="312" y="136" width="74" height="30" rx="4" fill="none" stroke="#71a74a" stroke-width="2.5"/><rect x="-37" y="170" width="74" height="30" rx="4" fill="none" stroke="#71a74a" stroke-width="2.5"/><rect x="41" y="170" width="74" height="30" rx="4" fill="none" stroke="#71a74a" stroke-width="2.5"/><rect x="119" y="170" width="74" height="30" rx="4" fill="none" stroke="#71a74a" stroke-width="2.5"/><rect x="197" y="170" width="74" height="30" rx="4" fill="none" stroke="#71a74a" stroke-width="2.5"/><rect x="275" y="170" width="74" height="30" rx="4" fill="none" stroke="#71a74a" stroke-width="2.5"/><rect x="0" y="204" width="74" height="30" rx="4" fill="none" stroke="#71a74a" stroke-width="2.5"/><rect x="78" y="204" width="74" height="30" rx="4" fill="none" stroke="#71a74a" stroke-width="2.5"/><rect x="156" y="204" width="74" height="30" rx="4" fill="none" stroke="#71a74a" stroke-width="2.5"/><rect x="234" y="204" width="74" height="30" rx="4" fill="none" stroke="#71a74a" stroke-width="2.5"/><rect x="312" y="204" width="74" height="30" rx="4" fill="none" stroke="#71a74a" stroke-width="2.5"/><rect x="-37" y="238" width="74" height="30" rx="4" fill="none" stroke="#71a74a" stroke-width="2.5"/><rect x="41" y="238" width="74" height="30" rx="4" fill="none" stroke="#71a74a" stroke-width="2.5"/><rect x="119" y="238" width="74" height="30" rx="4" fill="none" stroke="#71a74a" stroke-width="2.5"/><rect x="197" y="238" width="74" height="30" rx="4" fill="none" stroke="#71a74a" stroke-width="2.5"/><rect x="275" y="238" width="74" height="30" rx="4" fill="none" stroke="#71a74a" stroke-width="2.5"/><rect x="0" y="272" width="74" height="30" rx="4" fill="none" stroke="#71a74a" stroke-width="2.5"/><rect x="78" y="272" width="74" height="30" rx="4" fill="none" stroke="#71a74a" stroke-width="2.5"/><rect x="156" y="272" width="74" height="30" rx="4" fill="none" stroke="#71a74a" stroke-width="2.5"/><rect x="234" y="272" width="74" height="30" rx="4" fill="none" stroke="#71a74a" stroke-width="2.5"/><rect x="312" y="272" width="74" height="30" rx="4" fill="none" stroke="#71a74a" stroke-width="2.5"/></g></svg></g>
  <g transform="translate(130,470)"><svg x="0" y="0" width="237.15" height="451.35" viewBox="0 0 279 531" overflow="visible">
<g opacity="0.5">
<path fill-rule="evenodd" clip-rule="evenodd" d="M178.223 111.445C182.425 105.453 190.224 90.235 196.138 88.094C199.948 86.715 198.837 100.98 198.884 103.7C199.067 114.224 198.043 124.681 196.778 135.116C194.498 153.937 187.045 170.697 176.822 186.715C171.562 194.957 165.391 203.3 156.845 208.442C152.912 210.811 148.179 211.207 144.294 213.248C139.769 215.623 142.233 213.703 140.194 218.417C137.363 224.963 136.457 233.408 135.147 240.392C129.132 272.455 114.568 441.945 117.093 474.558C117.317 477.449 113.287 478.14 113.085 474.611C112.016 455.9 121.27 326.322 125.94 283.947C130.609 241.571 135.334 204.134 140.071 189.474C145.819 171.687 156.199 150.298 164.84 133.711C168.854 126.006 173.229 118.565 178.223 111.445Z" fill="#71a74a"/>
<path fill-rule="evenodd" clip-rule="evenodd" d="M209.414 319.278C220.349 311.25 232.186 326.401 222.29 334.43C216.82 338.868 211.101 337.29 207.882 333.591C205.792 336.139 203.836 338.803 201.956 341.052C196.229 347.909 190.817 354.928 185.644 362.111C174.898 377.035 165.689 392.801 156.06 408.278C146.558 423.554 137.132 438.908 128.519 454.571C121.223 467.841 111.498 483.452 109 498C112.79 467.146 127.172 437.49 144.298 410.291C161.285 383.314 180.779 353.853 207.081 332.564C204.404 328.627 204.33 323.008 209.414 319.278Z" fill="#daffc0"/>
<path fill-rule="evenodd" clip-rule="evenodd" d="M1.9132 244.031C8.0324 245.227 18.0312 259.07 23.0753 264.344C29.0699 270.612 34.5084 277.292 39.6349 284.292C50.6711 299.358 60.5411 315.376 68.9339 332.08C82.616 359.311 93.578 387.265 101.533 416.918C106.403 435.069 109.556 453.883 111.424 472.565C111.777 476.089 115.471 503.253 110.148 503.985C105.361 504.644 106.84 483.359 106.609 480.463C103.998 447.798 96.177 416.015 85.299 385.226C82.929 378.519 80.728 370.304 76.9381 364.268C74.2092 359.921 76.9186 361.437 72.1228 359.792C68.0049 358.378 63.3131 358.724 59.0963 356.993C49.9356 353.237 42.6006 345.944 36.1709 338.608C23.6758 324.351 13.774 308.928 8.6126 290.66C5.7495 280.532 3.1184 270.344 1.6583 259.902C1.2806 257.203 -2.0282 243.26 1.9132 244.031Z" fill="#71a74a"/>
<path fill-rule="evenodd" clip-rule="evenodd" d="M26.0614 13.716C49.1113 53.69 68.0528 97.601 80.283 142.076C87.694 169.023 92.876 196.675 98.025 224.126C105.997 266.632 113.538 309.134 115.683 352.395C117.841 395.906 122.108 446.092 107.861 488C114.978 445.452 108.202 400.162 107.002 357.35C106.429 336.912 104.768 316.674 102.588 296.355C100.473 276.645 97.018 257.029 93.801 237.474C92.234 227.95 90.588 218.441 88.912 208.937C88.411 206.101 88.2 197.687 86.401 195.75C84.591 193.8 75.3543 193.005 72.4544 191.574C66.6149 188.693 61.1221 184.6 56.2609 180.275C46.9418 171.984 38.8347 161.151 32.4359 150.472C17.6307 125.764 11.7116 95.61 12.0108 66.994C12.0682 61.438 21.0034 1.61 17.4149 0.786102C17.631 0.533002 17.8353 0.2718 18.028 0C20.7448 4.5488 23.4108 9.1284 26.0614 13.716Z" fill="#9ada6c"/>
<path fill-rule="evenodd" clip-rule="evenodd" d="M274.846 157.887C275.202 157.374 277.517 153.807 276.351 154.035C278.724 153.57 273.087 157.969 279 155.27C276.192 157.922 277.813 161.366 277.85 164.935C277.911 170.73 276.942 176.476 275.851 182.146C274.126 191.109 271.557 199.823 267.828 208.159C259.701 226.326 245.901 243.814 229.518 255.172C221.43 260.779 213.504 262.689 204.28 265.27C198.453 266.901 197.991 269.915 194.898 275.569C188.46 287.345 182.136 299.078 176.457 311.251C169.677 325.788 163.095 340.34 156.886 355.132C135.969 404.957 118.945 456.578 110.005 510C109.786 478.519 117.069 446.095 126.255 416.088C132.947 394.226 141.658 373.151 150.95 352.29C153.201 347.236 156.613 340.735 157.57 335.155C158.239 331.245 156.192 327.486 155.255 323.367C151.601 307.33 151.863 289.363 155.071 273.24C158.609 255.461 168.839 247.209 186.145 244.691C192.474 243.769 200.519 244.107 206.322 241.408C212.645 238.47 215.253 228.81 218.849 222.61C228.506 205.953 239.98 189.979 253.155 175.945C256.803 172.059 260.726 168.473 264.888 165.15C267.513 163.053 273.058 160.47 274.846 157.887Z" fill="#9ada6c"/>
<path fill-rule="evenodd" clip-rule="evenodd" d="M75.845 481.729C75.3997 478.71 77.7396 476 80.791 476H142.209C145.26 476 147.6 478.71 147.155 481.729L142.408 513.918C140.961 523.73 132.541 531 122.622 531H100.378C90.459 531 82.039 523.73 80.592 513.918L75.845 481.729Z" fill="#daffc0"/>
</g>
</svg></g>
  <g transform="translate(560,610)"><clipPath id="fnd560610"><rect x="0" y="0" width="440" height="100" rx="6"/></clipPath><g clip-path="url(#fnd560610)"><rect x="0" y="0" width="84" height="30" rx="4" fill="#9ada6c"/><rect x="89" y="0" width="84" height="30" rx="4" fill="#9ada6c"/><rect x="178" y="0" width="84" height="30" rx="4" fill="#9ada6c"/><rect x="267" y="0" width="84" height="30" rx="4" fill="#9ada6c"/><rect x="356" y="0" width="84" height="30" rx="4" fill="#9ada6c"/><rect x="-42" y="35" width="84" height="30" rx="4" fill="#9ada6c"/><rect x="47" y="35" width="84" height="30" rx="4" fill="#9ada6c"/><rect x="136" y="35" width="84" height="30" rx="4" fill="#9ada6c"/><rect x="225" y="35" width="84" height="30" rx="4" fill="#9ada6c"/><rect x="314" y="35" width="84" height="30" rx="4" fill="#9ada6c"/><rect x="403" y="35" width="84" height="30" rx="4" fill="#9ada6c"/><rect x="0" y="70" width="84" height="30" rx="4" fill="#9ada6c"/><rect x="89" y="70" width="84" height="30" rx="4" fill="#9ada6c"/><rect x="178" y="70" width="84" height="30" rx="4" fill="#9ada6c"/><rect x="267" y="70" width="84" height="30" rx="4" fill="#9ada6c"/><rect x="356" y="70" width="84" height="30" rx="4" fill="#9ada6c"/><rect x="-42" y="105" width="84" height="30" rx="4" fill="#9ada6c"/><rect x="47" y="105" width="84" height="30" rx="4" fill="#9ada6c"/><rect x="136" y="105" width="84" height="30" rx="4" fill="#9ada6c"/><rect x="225" y="105" width="84" height="30" rx="4" fill="#9ada6c"/><rect x="314" y="105" width="84" height="30" rx="4" fill="#9ada6c"/><rect x="403" y="105" width="84" height="30" rx="4" fill="#9ada6c"/></g></g>
  <g transform="translate(1090,640)"><rect x="0" y="40" width="84" height="30" rx="4" fill="#bcff8c" transform="rotate(-14 42 55)"/><rect x="70" y="52" width="84" height="30" rx="4" fill="#bcff8c" transform="rotate(8 112 67)"/><rect x="30" y="0" width="84" height="30" rx="4" fill="#9ada6c" transform="rotate(-4 72 15)"/></g>
  <g transform="translate(470,300)"><svg x="0" y="0" width="494" height="624" viewBox="0 0 380 480" overflow="visible">
<path fill-rule="evenodd" clip-rule="evenodd" d="M195.935 102.244C202.411 106.147 208.774 108.033 211.76 107.263C219.25 105.333 219.938 77.9351 214.143 67.1339C208.349 56.3328 178.558 51.625 177.057 73.0255C176.536 80.4529 179.654 87.0814 184.262 92.4901L176 131H200L195.935 102.244Z" fill="#B28B67"/>
<path fill-rule="evenodd" clip-rule="evenodd" d="M196.541 74.7594C198.657 71.6093 200.688 69.2064 203.331 67.8111C214.084 67.981 215.342 66.0533 215.342 59.5561C213.606 58.3132 207.478 56.2206 200.615 55.632C197.114 54.6301 192.966 54.8185 188.971 56.4897C184.04 57.889 179.864 60.9027 178.02 66.5446C171.345 78.0615 176.41 90.0503 183.237 94.1457C185.054 91.993 186.639 89.9067 188.055 87.9096C186.918 86.7993 186.212 85.2497 186.212 83.5353C186.212 80.1582 188.95 77.4205 192.327 77.4205C192.576 77.4205 192.82 77.4353 193.061 77.464C193.213 81.6864 193.839 95.9715 195.48 100.933C197.418 106.784 208.719 108.22 212.66 108.22C216.065 108.22 215.949 104.996 215.865 102.686C215.854 102.353 215.842 102.039 215.842 101.756C215.842 101.166 215.074 101.168 214.207 101.169C213.081 101.172 211.787 101.174 211.787 99.8822C211.787 98.4737 213.733 97.3933 215.475 96.4264C216.561 95.8232 217.569 95.2642 217.974 94.6974C219.252 92.909 219.682 90.4971 217.755 90.4971C216.701 90.4971 215.256 91.1044 213.516 91.8351C210.891 92.9383 207.597 94.3225 203.972 94.3225C197.983 94.3225 196.56 75.0012 196.541 74.7594Z" fill="#613A25"/>
<path fill-rule="evenodd" clip-rule="evenodd" d="M168 214L204.255 341.227L230.707 435H250L221.891 214H168Z" fill="#2a5542"/>
<path fill-rule="evenodd" clip-rule="evenodd" d="M158.304 214C157.466 279.574 154.606 315.34 153.726 321.298C152.845 327.256 139.532 365.156 113.786 435H133.773C166.549 367.997 184.846 330.096 188.663 321.298C192.479 312.5 204.259 276.734 222 214H158.304Z" fill="#9ada6c"/>
<path fill-rule="evenodd" clip-rule="evenodd" d="M112 453L113 432H134C148.936 442.5 173 449 173 449V453H135L122 451V453H112Z" fill="#2a5542"/>
<path fill-rule="evenodd" clip-rule="evenodd" d="M228 453L229 432H250C264.936 442.5 289 449 289 449V453H251L238 451V453H228Z" fill="#2a5542"/>
<path fill-rule="evenodd" clip-rule="evenodd" d="M90.3643 250.284C94.0937 244.804 115.667 186.536 115.667 186.536L133.379 189.108C133.379 189.108 104.861 250.982 102.801 254.554C100.126 259.193 102.492 266.812 104.097 271.978C104.345 272.777 104.575 273.518 104.766 274.179C101.395 275.153 100.112 273.223 98.7601 271.189C97.2331 268.892 95.6173 266.461 90.803 267.928C88.943 268.495 87.156 269.223 85.4102 269.934C79.3796 272.391 73.8395 274.648 67.4764 269.37C66.4676 268.533 65.6178 265.797 68.8242 264.203C76.8125 260.231 88.5411 252.963 90.3643 250.284ZM282.545 223.202L252.359 197.61L244.109 214.507L274.706 229.777C282.885 240.868 287.563 245.581 288.74 243.914C289.732 242.509 289.133 241.087 288.581 239.776C288.151 238.756 287.75 237.803 288.152 236.98C289.07 235.1 295.042 235.722 300.684 236.555C306.326 237.388 304.849 234.748 303.569 233.406C298.021 229.536 291.013 226.134 282.545 223.202Z" fill="#B28B67"/>
<path fill-rule="evenodd" clip-rule="evenodd" d="M189.695 114.332L200.67 110.703C215.557 147.893 237.761 183.876 274.857 214.27L265.684 230.097C233.081 210.892 202.219 195.973 189.695 167.155C185.492 157.483 189.352 125.897 189.695 114.332Z" fill="#bcff8c"/>
<path fill-rule="evenodd" clip-rule="evenodd" d="M152 219C152 219 199.157 224 226.236 219C228.473 218.587 228.826 214.842 227.788 212.301C211.636 172.724 200.56 138.192 200.56 110.703C196.115 112.944 185 111.374 185 111.374C165.086 139.703 155.933 172.206 152 219Z" fill="#F4D364"/>
<path fill-rule="evenodd" clip-rule="evenodd" d="M179.293 109C179.807 108.654 180.079 108.481 180.079 108.481L180.049 109H188.349C188.766 111.453 189.376 120.543 190.267 133.798C193.504 181.965 200.436 285.127 215.191 324.606H113.385C115.533 279.722 132.082 226.047 149.224 180.47C136.575 193.056 121.801 214.153 109.862 249.273L90.7925 244.378C110.226 160.638 167.162 117.452 178.21 109.744C178.318 109.495 178.425 109.247 178.532 109H179.293Z" fill="#bcff8c"/>
</svg></g>
  <g transform="translate(820,300) scale(1.1)"><g transform="rotate(-14 70 75)"><path d="M10 46 L84 20 L84 116 L10 92 Z" fill="#9ada6c"/><ellipse cx="84" cy="68" rx="12" ry="48" fill="#2a5542"/><rect x="30" y="90" width="16" height="40" rx="6" fill="#2a5542"/><path d="M104 40 Q124 68 104 96" fill="none" stroke="#9ada6c" stroke-width="7" stroke-linecap="round"/><path d="M124 24 Q156 68 124 112" fill="none" stroke="#bcff8c" stroke-width="7" stroke-linecap="round"/></g></g>
  <path d="M 1030 282 C 1036.12 293.88 1036.12 293.88 1048 300 C 1036.12 306.12 1036.12 306.12 1030 318 C 1023.88 306.12 1023.88 306.12 1012 300 C 1023.88 293.88 1023.88 293.88 1030 282 Z" fill="#9ada6c"/>
  <path d="M 720 238 C 724.08 245.92 724.08 245.92 732 250 C 724.08 254.08 724.08 254.08 720 262 C 715.92 254.08 715.92 254.08 708 250 C 715.92 245.92 715.92 245.92 720 238 Z" fill="#9ada6c"/>
</svg>
