<svg width="159" height="285" viewBox="0 0 159 285" fill="none" xmlns="http://www.w3.org/2000/svg">
<path d="M22.6069 190.178H34.9377V283.687H22.6069V190.178Z" fill="#C1A443"/>
<path d="M71.9306 190.178H84.2614V283.687H71.9306V190.178Z" fill="#C1A443"/>
<path d="M103.358 70.7438L105.865 120.975L117.655 157.809H96.4296L85.4054 126.073L81.9604 90.0044L103.358 70.7438Z" fill="#F4D364"/>
<path d="M103.952 246.312L99.6836 266.224L114.019 267.93L118.095 248.324L103.952 246.312Z" fill="#FCC9A7"/>
<path d="M98.8221 264.431C99.1858 263.357 100.334 262.974 101.119 263.664C102.65 265.025 105.406 266.692 109.483 266.29C113.712 265.868 115.301 263.376 115.913 261.575C116.239 260.636 117.138 260.157 117.942 260.559L143.608 273.476C145.158 274.262 146.383 275.719 146.995 277.539C147.57 279.245 146.421 281.085 144.814 281.046L100.468 279.82C98.7264 279.782 97.3869 278.057 97.54 276.064L98.2673 266.29C98.2864 266.136 98.3054 265.964 98.3628 265.81L98.8221 264.431Z" fill="#1F252A"/>
<path d="M104.2 150.029H137.483C137.483 150.029 157.751 148.899 158.957 165.553C160.163 182.207 129.234 229.851 124.392 255.302L96.5635 253.003L116.602 183.798L66.7638 184.085C63.07 184.104 59.3953 183.568 55.9119 182.36C46.2084 178.987 31.3947 174.158 39.4714 147.404L104.2 150.029Z" fill="#092330"/>
<path d="M78.5152 246.387L71.74 270.189L86.0754 271.895L92.6593 248.399L78.5152 246.387Z" fill="#FCC9A7"/>
<path d="M70.8794 268.384C71.243 267.31 72.3912 266.927 73.1759 267.617C74.707 268.978 77.463 270.645 81.5397 270.243C85.7694 269.821 87.3582 267.329 87.9706 265.528C88.296 264.589 89.1955 264.11 89.9994 264.512L115.665 277.429C117.215 278.215 118.44 279.672 119.053 281.492C119.627 283.198 118.478 285.038 116.871 284.999L71.7596 283.773C70.0179 283.735 68.6784 282.01 68.8315 280.017L70.3433 270.243C70.3624 270.089 70.3816 269.917 70.439 269.763L70.8794 268.384Z" fill="#1F252A"/>
<path d="M64.4288 50.9954C63.6824 51.7237 30.2846 60.252 30.2846 60.252L37.4235 79.2443L73.941 76.4846L64.4288 50.9954Z" fill="#F7EBE7"/>
<path d="M78.2082 55.5775C78.2082 55.5775 99.9694 63.5309 103.357 70.7369C102.19 80.9134 98.6106 90.7066 92.7157 99.0816C85.4811 109.354 76.5431 127.005 78.1891 150.022H15.2787C15.2787 150.022 18.6663 85.2638 37.2887 60.4071L78.2082 55.5775Z" fill="#FFECAC"/>
<path d="M71.0735 65.8446C64.8915 64.5798 60.9106 58.5429 62.1738 52.3526L65.8676 34.2419L88.2413 38.8221L84.5475 56.933C83.2843 63.1232 77.2554 67.1095 71.0735 65.8446Z" fill="#FCC9A7"/>
<path d="M64.3355 40.5753C64.3355 40.5753 66.6896 55.2555 78.0966 56.1371C88.0872 56.9037 87.1305 42.4343 87.1305 42.4343L64.3355 40.5753Z" fill="#F4BE9A"/>
<path d="M77.1968 48.0862L75.2254 47.6263C65.3305 45.3265 59.1677 35.4375 61.4644 25.5485L64.0673 14.2604C66.364 4.35212 76.2398 -1.81892 86.1156 0.480852L88.0869 0.940806C97.9819 3.24058 104.145 13.1296 101.848 23.0187L99.2451 34.3068C96.9484 44.215 87.0726 50.386 77.1968 48.0862Z" fill="#FCC9A7"/>
<path d="M67.6463 24.5564C66.8233 28.0828 63.3017 30.2867 59.7801 29.4818C56.2393 28.6577 54.0577 25.1314 54.8615 21.6051C55.6845 18.0787 59.2059 15.8748 62.7275 16.6797C66.2682 17.5038 68.4692 21.0301 67.6463 24.5564Z" fill="#FCC9A7"/>
<path d="M78.5535 65.1445L69.3095 65.3168L75.7786 78.7321L82.7642 65.8726L78.5535 65.1445Z" fill="#0C2C40"/>
<path d="M61.3847 51.5917L73.289 65.5053L65.5379 74.417L51.279 54.7922C51.279 54.7922 54.9348 48.9086 61.3847 51.5917Z" fill="#FFF7F3"/>
<path d="M78.5537 65.1473L85.4055 72.8899L90.2286 60.816C90.2286 60.816 88.9654 55.3924 85.0227 56.4273L78.5537 65.1473Z" fill="#FFF7F3"/>
<path d="M59.3188 129.826L78.458 136.131L79.7211 147.381L54.3426 139.792L59.3188 129.826Z" fill="#FCC9A7"/>
<path d="M75.6053 143.573C75.6053 150.147 80.9262 155.494 87.51 155.494C94.0748 155.494 99.4144 150.166 99.4144 143.573C99.4144 137 94.0939 131.653 87.51 131.653C80.9453 131.653 75.6053 136.981 75.6053 143.573Z" fill="#FCC9A7"/>
<path d="M78.2092 150.019H111.473C111.473 150.019 131.741 148.888 132.947 165.542C134.153 182.196 100.946 232.906 96.1043 258.338L68.2759 256.038L90.5922 183.768L40.7538 184.055C37.06 184.074 33.3853 183.538 29.9019 182.33C20.1984 178.957 5.38486 174.128 13.4616 147.374L78.2092 150.019Z" fill="#0C2C40"/>
<path d="M107.856 145.682H68.5635C67.3578 145.682 66.4008 146.659 66.4008 147.847C66.4008 149.055 67.3769 150.013 68.5635 150.013H108.622L107.856 145.682Z" fill="#B2B2B2"/>
<path d="M44.0063 78.3427L22.9915 112.322L73.289 130.298L66.3991 145.209C66.3991 145.209 23.3934 140.379 2.60831 124.338C0.694395 122.862 -0.262554 120.467 0.0628125 118.071C1.03891 110.405 5.21124 91.7963 22.9915 65.3489C26.6088 59.9636 33.8051 58.3346 39.4129 61.5926C45.2504 64.9656 47.2983 72.4399 44.0063 78.3427Z" fill="#F4D364"/>
<path d="M98.2889 104.421L87.0328 74.6656" stroke="#EADDD8" stroke-width="0.761747" stroke-miterlimit="10" stroke-linecap="round" stroke-linejoin="round"/>
</svg>
