<svg width="380" height="480" viewBox="0 0 380 480" fill="none" xmlns="http://www.w3.org/2000/svg">
<path fill-rule="evenodd" clip-rule="evenodd" d="M195.935 102.244C202.411 106.147 208.774 108.033 211.76 107.263C219.25 105.333 219.938 77.9351 214.143 67.1339C208.349 56.3328 178.558 51.625 177.057 73.0255C176.536 80.4529 179.654 87.0814 184.262 92.4901L176 131H200L195.935 102.244Z" fill="#B28B67"/>
<path fill-rule="evenodd" clip-rule="evenodd" d="M196.541 74.7594C198.657 71.6093 200.688 69.2064 203.331 67.8111C214.084 67.981 215.342 66.0533 215.342 59.5561C213.606 58.3132 207.478 56.2206 200.615 55.632C197.114 54.6301 192.966 54.8185 188.971 56.4897C184.04 57.889 179.864 60.9027 178.02 66.5446C171.345 78.0615 176.41 90.0503 183.237 94.1457C185.054 91.993 186.639 89.9067 188.055 87.9096C186.918 86.7993 186.212 85.2497 186.212 83.5353C186.212 80.1582 188.95 77.4205 192.327 77.4205C192.576 77.4205 192.82 77.4353 193.061 77.464C193.213 81.6864 193.839 95.9715 195.48 100.933C197.418 106.784 208.719 108.22 212.66 108.22C216.065 108.22 215.949 104.996 215.865 102.686C215.854 102.353 215.842 102.039 215.842 101.756C215.842 101.166 215.074 101.168 214.207 101.169C213.081 101.172 211.787 101.174 211.787 99.8822C211.787 98.4737 213.733 97.3933 215.475 96.4264C216.561 95.8232 217.569 95.2642 217.974 94.6974C219.252 92.909 219.682 90.4971 217.755 90.4971C216.701 90.4971 215.256 91.1044 213.516 91.8351C210.891 92.9383 207.597 94.3225 203.972 94.3225C197.983 94.3225 196.56 75.0012 196.541 74.7594Z" fill="#613A25"/>
<path fill-rule="evenodd" clip-rule="evenodd" d="M168 214L204.255 341.227L230.707 435H250L221.891 214H168Z" fill="#2B363C"/>
<path fill-rule="evenodd" clip-rule="evenodd" d="M158.304 214C157.466 279.574 154.606 315.34 153.726 321.298C152.845 327.256 139.532 365.156 113.786 435H133.773C166.549 367.997 184.846 330.096 188.663 321.298C192.479 312.5 204.259 276.734 222 214H158.304Z" fill="#A9B1B6"/>
<path fill-rule="evenodd" clip-rule="evenodd" d="M112 453L113 432H134C148.936 442.5 173 449 173 449V453H135L122 451V453H112Z" fill="#2B363C"/>
<path fill-rule="evenodd" clip-rule="evenodd" d="M228 453L229 432H250C264.936 442.5 289 449 289 449V453H251L238 451V453H228Z" fill="#2B363C"/>
<path fill-rule="evenodd" clip-rule="evenodd" d="M90.3643 250.284C94.0937 244.804 115.667 186.536 115.667 186.536L133.379 189.108C133.379 189.108 104.861 250.982 102.801 254.554C100.126 259.193 102.492 266.812 104.097 271.978C104.345 272.777 104.575 273.518 104.766 274.179C101.395 275.153 100.112 273.223 98.7601 271.189C97.2331 268.892 95.6173 266.461 90.803 267.928C88.943 268.495 87.156 269.223 85.4102 269.934C79.3796 272.391 73.8395 274.648 67.4764 269.37C66.4676 268.533 65.6178 265.797 68.8242 264.203C76.8125 260.231 88.5411 252.963 90.3643 250.284ZM282.545 223.202L252.359 197.61L244.109 214.507L274.706 229.777C282.885 240.868 287.563 245.581 288.74 243.914C289.732 242.509 289.133 241.087 288.581 239.776C288.151 238.756 287.75 237.803 288.152 236.98C289.07 235.1 295.042 235.722 300.684 236.555C306.326 237.388 304.849 234.748 303.569 233.406C298.021 229.536 291.013 226.134 282.545 223.202Z" fill="#B28B67"/>
<path fill-rule="evenodd" clip-rule="evenodd" d="M189.695 114.332L200.67 110.703C215.557 147.893 237.761 183.876 274.857 214.27L265.684 230.097C233.081 210.892 202.219 195.973 189.695 167.155C185.492 157.483 189.352 125.897 189.695 114.332Z" fill="#DDE3E9"/>
<path fill-rule="evenodd" clip-rule="evenodd" d="M152 219C152 219 199.157 224 226.236 219C228.473 218.587 228.826 214.842 227.788 212.301C211.636 172.724 200.56 138.192 200.56 110.703C196.115 112.944 185 111.374 185 111.374C165.086 139.703 155.933 172.206 152 219Z" fill="#F4D364"/>
<path fill-rule="evenodd" clip-rule="evenodd" d="M179.293 109C179.807 108.654 180.079 108.481 180.079 108.481L180.049 109H188.349C188.766 111.453 189.376 120.543 190.267 133.798C193.504 181.965 200.436 285.127 215.191 324.606H113.385C115.533 279.722 132.082 226.047 149.224 180.47C136.575 193.056 121.801 214.153 109.862 249.273L90.7925 244.378C110.226 160.638 167.162 117.452 178.21 109.744C178.318 109.495 178.425 109.247 178.532 109H179.293Z" fill="#DDE3E9"/>
</svg>
