<svg width="176" height="320" viewBox="0 0 176 320" fill="none" xmlns="http://www.w3.org/2000/svg">
<path fill-rule="evenodd" clip-rule="evenodd" d="M63.2005 44.7283C58.7163 41.6672 55.0965 37.4131 54.0198 31.8479C50.9172 15.8133 73.9457 13.3531 80.3729 20.1434C86.8001 26.9338 91.6875 47.2169 86.5116 50.1252C84.4475 51.285 79.3556 51.1631 73.7824 49.5803L82.4636 69.9169L64.6584 74.6878L63.2005 44.7283Z" fill="#784931"/>
<path fill-rule="evenodd" clip-rule="evenodd" d="M71.0223 13.3776C68.3923 13.2942 64.7937 13.9912 63.3531 14.558C63.6605 12.3245 63.3967 9.9986 62.5399 7.89469C61.7074 5.85036 60.271 4.3046 58.8831 2.6534C58.2434 1.8923 57.5508 1.15047 56.6855 0.66906C55.804 0.178586 54.7982 -0.0315726 53.8121 0.0038223C52.8029 0.0399921 51.8138 0.324533 50.9148 0.777981C50.5171 0.978564 50.1904 1.27069 49.8058 1.48747C49.4119 1.70953 49.1364 1.5021 48.7587 1.32065C47.8485 0.883479 46.6797 0.860442 45.7136 0.998996C44.6296 1.1545 43.5819 1.60353 42.672 2.2141C41.7863 2.80846 40.9947 3.60036 40.501 4.57729C40.2811 5.01218 40.1032 5.48779 40.0362 5.97823C40.0088 6.17948 40.0249 6.29002 39.8605 6.40509C39.7085 6.51157 39.512 6.56614 39.3538 6.67111C37.824 7.68583 36.7317 9.35827 36.392 11.2208C36.1939 12.3075 36.4325 14.0632 37.0016 15.9502C37.5707 17.8373 40.6348 22.338 42.7414 23.7147C44.6219 24.9434 47.0351 25.4402 49.2132 25.357C48.2642 27.266 47.874 29.4382 47.7289 31.58C47.5714 33.9064 47.7138 36.2417 48.1518 38.5427C48.5681 40.7288 49.1609 42.9997 50.2301 44.9619C51.2301 46.7967 52.6758 48.1344 54.6428 48.7017C55.5438 48.9616 56.4726 49.0894 57.398 49.1856C58.3101 49.2804 59.2223 49.3658 60.1365 49.3112C61.8665 49.2077 63.7408 48.6437 64.6574 47.0113C64.9877 46.4229 65.3314 45.7026 65.5109 45.0438C65.5755 44.8068 65.6116 44.6535 65.4128 44.4921C65.1747 44.2988 64.8442 44.1903 64.5706 44.0625C63.0105 43.3338 61.8394 42.1166 61.1858 40.4723C60.5227 38.804 60.3938 36.4558 61.8819 35.2514C63.7188 33.7647 66.301 34.2144 68.4206 34.7105C68.47 31.7436 69.4227 28.8288 71.62 26.8852C74.0509 24.7349 77.2266 23.7086 79.7883 21.7362C80.4558 21.2222 81.126 20.6622 81.5085 19.8769C81.6683 19.5487 81.8469 19.1306 81.8448 18.7537C81.8421 18.2586 81.4372 17.9515 81.1081 17.6531C79.3628 16.0713 73.6523 13.461 71.0223 13.3776Z" fill="#191847"/>
<path fill-rule="evenodd" clip-rule="evenodd" d="M68.7194 136.688L96.5653 234.028L116.882 305.773H131.7L110.111 136.688H68.7194Z" fill="#191847"/>
<path fill-rule="evenodd" clip-rule="evenodd" d="M61.2725 136.688C60.6284 186.858 58.4321 214.222 57.7559 218.781C57.0796 223.339 46.8544 252.336 27.0802 305.773H42.4307C67.6048 254.509 81.6577 225.512 84.5892 218.781C87.5208 212.049 96.5678 184.685 110.194 136.688H61.2725Z" fill="#2F3676"/>
<path fill-rule="evenodd" clip-rule="evenodd" d="M25.7085 319.663L26.4766 303.534H42.6058C50.2538 308.91 60.2385 313.263 72.56 316.591V319.663H43.3738L33.3891 318.127V319.663H25.7085Z" fill="#191847"/>
<path fill-rule="evenodd" clip-rule="evenodd" d="M114.803 319.663L115.571 303.534H131.7C139.348 308.91 149.333 313.263 161.654 316.591V319.663H132.468L122.483 318.127V319.663H114.803Z" fill="#191847"/>
<path fill-rule="evenodd" clip-rule="evenodd" d="M131.324 116.411L157.553 131.646C164.347 132.724 170.099 134.35 174.809 136.523C175.956 137.362 177.423 139.152 173.045 139.278C168.667 139.404 164.067 139.732 163.622 141.269C163.177 142.807 165.99 144.293 164.987 146.41C164.318 147.821 160.154 144.898 152.495 137.641L127.326 130.228L131.324 116.411ZM26.4619 126.306L40.2003 125.88C31.2942 159.463 26.4799 177.241 25.7572 179.216C24.1313 183.66 28.1178 190.198 29.8477 193.726C24.6932 196.244 24.9553 187.59 18.457 190.883C12.5256 193.888 8.11408 199.108 1.00444 195.08C0.130348 194.584 -0.875561 192.638 1.33812 191.011C6.85322 186.956 14.76 179.921 15.7835 177.662C17.1793 174.58 20.7388 157.462 26.4619 126.306Z" fill="#B28B67"/>
<path fill-rule="evenodd" clip-rule="evenodd" d="M72.8722 62.088L80.6918 57.8926C96.8882 83.8987 118.458 108.021 150.551 125.949L145.713 139.085C118.504 128.978 93.1797 121.866 79.8825 101.846C75.4196 95.1264 74.1476 70.8383 72.8722 62.088Z" fill="#C5CFD6"/>
<path fill-rule="evenodd" clip-rule="evenodd" d="M58.2515 145.895C82.4734 144.211 101.191 140.911 114.403 135.994C116.04 135.385 115.81 132.519 114.688 130.745C97.2182 103.111 84.2574 78.5972 80.6093 57.9073C78.5658 59.4271 74.6724 60.2874 68.9288 60.4882C57.6258 84.4657 55.0158 110.151 58.2515 145.895Z" fill="#323337"/>
<path fill-rule="evenodd" clip-rule="evenodd" d="M64.8691 59.3613L71.1464 58.2545C74.1163 66.5507 99.1507 181.571 120.064 216.953L43.0593 230.531C38.6081 195.525 44.4248 151.505 51.6126 114.26C41.7105 127.082 34.6384 147.095 30.3964 174.3L15.323 173.159C17.9391 125.283 34.029 87.596 63.5927 60.0979C63.6357 59.919 63.6785 59.741 63.7211 59.5638L64.2766 59.4658C64.458 59.2992 64.64 59.1329 64.8224 58.9671L64.8691 59.3613Z" fill="#DDE3E9"/>
</svg>
